<?xml version="1.0" encoding="UTF-8" standalone="no"?>
<!-- Created with Inkscape (http://www.inkscape.org/) -->

<svg
   version="1.1"
   id="svg1"
   width="162.56"
   height="162.56"
   viewBox="0 0 162.56 162.56"
   sodipodi:docname="holton.svg"
   inkscape:version="1.4 (e7c3feb100, 2024-10-09)"
   xmlns:inkscape="http://www.inkscape.org/namespaces/inkscape"
   xmlns:sodipodi="http://sodipodi.sourceforge.net/DTD/sodipodi-0.dtd"
   xmlns="http://www.w3.org/2000/svg"
   xmlns:svg="http://www.w3.org/2000/svg">
  <defs
     id="defs1" />
  <sodipodi:namedview
     id="namedview1"
     pagecolor="#505050"
     bordercolor="#ffffff"
     borderopacity="1"
     inkscape:showpageshadow="0"
     inkscape:pageopacity="0"
     inkscape:pagecheckerboard="1"
     inkscape:deskcolor="#505050"
     inkscape:zoom="4.9212599"
     inkscape:cx="81.381599"
     inkscape:cy="81.889599"
     inkscape:window-width="1920"
     inkscape:window-height="1011"
     inkscape:window-x="0"
     inkscape:window-y="0"
     inkscape:window-maximized="1"
     inkscape:current-layer="g1" />
  <g
     inkscape:groupmode="layer"
     inkscape:label="Image"
     id="g1">
    <path
       style="fill:#000000"
       d="m 75.564293,156.00436 c -0.283638,-0.17294 -0.556883,-0.47867 -0.607211,-0.6794 -0.08686,-0.34643 -0.0067,-6.23632 0.09032,-6.63269 0.112353,-0.45923 1.221859,-0.72465 3.060842,-0.73222 2.064073,-0.009 2.447488,0.11919 2.785298,0.92769 0.289553,0.69299 0.302754,5.47555 0.01742,6.31226 -0.300198,0.8803 -0.956757,1.11957 -3.070969,1.11915 -1.467611,-2.9e-4 -1.845675,-0.0526 -2.275706,-0.31479 z m 4.115706,-3.67293 c 0,-3.12696 0.04569,-3.05143 -1.845799,-3.05143 -1.163975,0 -1.365015,0.0412 -1.508572,0.30948 -0.0911,0.17021 -0.165629,1.29095 -0.165629,2.49052 0,1.19957 0.07453,2.3203 0.165629,2.49052 0.146742,0.27419 0.347446,0.30948 1.76,0.30948 h 1.594371 z m 3.854423,3.84881 c -0.726501,-0.20323 -1.051524,-0.87509 -1.074958,-2.22208 -0.01473,-0.84651 0.04622,-1.2867 0.199344,-1.43983 0.176489,-0.17649 0.182029,-0.29026 0.02773,-0.56944 -0.252711,-0.45724 -0.248521,-2.64803 0.0059,-3.10889 0.428571,-0.77618 0.860749,-0.8973 3.243764,-0.90904 l 2.223776,-0.011 -1.2e-5,0.68 -1.1e-5,0.68 h -1.906914 c -1.048803,0 -2.020803,0.0437 -2.16,0.0971 -0.355714,0.1365 -0.350714,1.54267 0.0065,1.83917 0.142794,0.1185 0.754794,0.24344 1.36,0.27764 l 1.100375,0.0622 v 0.61547 0.61548 l -1.32,0.0465 -1.32,0.0465 -0.0489,0.67388 c -0.09155,1.26161 0.02007,1.32612 2.29453,1.32612 h 1.994371 v 0.72 0.72 l -2.12,-0.016 c -1.166,-0.009 -2.29351,-0.0645 -2.505577,-0.12381 z m -17.269652,-4.7724 c -0.294431,-0.0581 -0.355475,-0.14878 -0.28349,-0.42097 0.05046,-0.19078 0.317046,-1.42687 0.592423,-2.74687 0.275376,-1.32 0.511435,-2.41249 0.524575,-2.42775 0.01314,-0.0153 0.275402,0.0234 0.582805,0.0859 0.389014,0.0791 0.570171,0.20915 0.59594,0.42775 0.02036,0.17274 -0.199606,1.39408 -0.488819,2.71408 -0.563227,2.57062 -0.555701,2.55892 -1.523434,2.36784 z m 28.940086,-0.71312 c -0.202651,-0.92145 -0.965368,-4.61048 -0.964067,-4.66289 4.34e-4,-0.0175 0.319267,-0.0501 0.708516,-0.0725 l 0.707727,-0.0407 0.1886,0.92067 c 0.103731,0.50637 0.355227,1.67668 0.558881,2.60068 0.203654,0.924 0.321951,1.72839 0.262883,1.78755 -0.05907,0.0591 -0.37001,0.15578 -0.690981,0.21472 l -0.583583,0.10718 z m -35.764857,-1.13871 c -0.264,-0.0902 -0.519085,-0.22331 -0.566855,-0.29582 -0.08136,-0.12348 1.486279,-5.03295 1.663727,-5.2104 0.151843,-0.15184 1.245645,0.30073 1.175153,0.48624 -0.03845,0.10118 -0.411751,1.26397 -0.829556,2.58397 -0.417806,1.32 -0.805282,2.445 -0.861058,2.5 -0.05578,0.055 -0.317411,0.0262 -0.581411,-0.064 z M 102.47444,149.4 c -0.0415,-0.11 -0.42205,-1.28 -0.84558,-2.6 l -0.77007,-2.4 0.4106,-0.10021 c 0.22584,-0.0551 0.52879,-0.14981 0.67323,-0.21045 0.21996,-0.0923 0.40583,0.31859 1.14439,2.53 l 0.88178,2.64023 -0.48827,0.17022 c -0.63979,0.22303 -0.91368,0.21492 -1.00608,-0.0298 z m -58.634441,-1.74729 c -0.308,-0.18804 -0.719413,-0.43879 -0.914252,-0.55722 -0.353363,-0.2148 -0.351407,-0.22026 0.779412,-2.17541 0.623516,-1.07805 1.321045,-2.28408 1.550065,-2.68008 0.22902,-0.396 0.420058,-0.756 0.424529,-0.8 0.0045,-0.044 0.260204,-0.476 0.568296,-0.96 0.308092,-0.484 0.738195,-1.222 0.955784,-1.64 0.217589,-0.418 0.446572,-0.76 0.508851,-0.76 0.09893,0 1.714362,0.90706 1.863178,1.04617 0.07046,0.0659 -4.987291,8.86762 -5.095863,8.86809 -0.044,1.9e-4 -0.332,-0.15351 -0.64,-0.34155 z M 115.6,143.80636 c -1.32,-2.30039 -2.42128,-4.26752 -2.4473,-4.3714 -0.0411,-0.16433 1.86337,-1.44152 1.96931,-1.32064 0.022,0.0251 1.16186,1.98465 2.53298,4.3545 l 2.49295,4.30883 -0.99397,0.60552 c -0.54668,0.33304 -1.02997,0.60557 -1.07397,0.60563 -0.044,5e-5 -1.16,-1.88205 -2.48,-4.18244 z m -63.308978,2.98999 -0.428978,-0.23502 1.130773,-2.52067 c 0.621925,-1.38636 1.150274,-2.54397 1.174109,-2.57246 0.03409,-0.0408 0.990592,0.39356 1.149562,0.52197 0.11283,0.0911 -2.220706,4.97586 -2.391238,5.00551 -0.112888,0.0196 -0.398291,-0.0701 -0.634228,-0.19933 z m 56.132968,-2.16139 c -0.58519,-1.32277 -1.06326,-2.45677 -1.06236,-2.52 8.9e-4,-0.0632 0.28222,-0.23277 0.62518,-0.37675 l 0.62355,-0.26179 1.12569,2.50179 1.12569,2.50179 -0.51087,0.27329 c -0.28098,0.15031 -0.59007,0.27631 -0.68688,0.28 -0.0968,0.004 -0.6548,-1.07556 -1.24,-2.39833 z m -68.92707,-5.29973 c -0.321543,-0.30228 -0.459558,-0.53131 -0.34406,-0.57095 0.227715,-0.0782 1.327139,-1.57315 1.327139,-1.80465 0,-0.0878 0.05814,-0.15963 0.1292,-0.15963 0.121849,0 1.1508,-1.36324 1.1508,-1.52468 0,-0.0414 0.146559,-0.22188 0.325687,-0.40101 0.314716,-0.31471 0.341663,-0.31625 0.8,-0.0455 0.260872,0.1541 0.474313,0.34206 0.474313,0.41768 0,0.12937 -3.19062,4.59351 -3.283082,4.59351 -0.02369,0 -0.28469,-0.22715 -0.579997,-0.50477 z m 81.39927,-1.63675 c -0.8449,-1.17645 -1.53619,-2.20634 -1.53619,-2.28865 0,-0.13405 0.85199,-0.84983 1.01155,-0.84983 0.0355,0 0.6285,0.774 1.31782,1.72 0.68932,0.946 1.41372,1.936 1.60978,2.2 l 0.35646,0.48 -0.61161,0.43873 -0.61161,0.43874 z m -42.176191,-1.97203 c 0,-0.32026 0.445805,-4.20657 0.56971,-4.96645 l 0.08479,-0.52 h 2.121834 2.121835 l 0.286906,2.44 c 0.157798,1.342 0.32471,2.638 0.370915,2.88 l 0.08401,0.44 h -2.82 c -2.553707,0 -2.82,-0.0258 -2.82,-0.27355 z m -44.952876,-0.97471 -0.496124,-0.49613 0.8445,-0.85978 c 0.464475,-0.47287 1.308856,-1.37639 1.876401,-2.0078 0.567546,-0.63142 1.085531,-1.14803 1.151078,-1.14803 0.06555,0 0.313807,0.16741 0.551688,0.37203 l 0.432511,0.37203 -1.643758,1.82797 c -0.904067,1.00538 -1.773452,1.96474 -1.931965,2.1319 -0.282087,0.29748 -0.298741,0.2934 -0.784331,-0.19219 z m 92.652907,-1.57871 -1.81392,-2.00015 0.4517,-0.47148 c 0.24844,-0.25931 0.52908,-0.45121 0.62364,-0.42644 0.21361,0.056 3.59855,3.76199 3.59855,3.93991 0,0.1301 -0.57935,0.69954 -0.88302,0.86791 -0.0897,0.0497 -0.97929,-0.80967 -1.97695,-1.90975 z m -72.500031,-1.60921 c -0.836,-0.48819 -2.004771,-1.16823 -2.597269,-1.51119 l -1.077269,-0.62356 1.087892,-1.47453 c 0.598341,-0.811 1.731362,-2.34764 2.517825,-3.41476 l 1.429932,-1.94021 1.799444,1.03375 c 0.989695,0.56856 1.799195,1.11766 1.798889,1.22021 -9.04e-4,0.30309 -3.159934,7.53462 -3.305866,7.56767 -0.07347,0.0166 -0.817578,-0.36918 -1.653578,-0.85738 z M 106.71477,132.12 c -2.01769,-4.58651 -3.14406,-7.26184 -3.09369,-7.34811 0.10686,-0.18306 3.46043,-2.06492 3.59434,-2.01697 0.0693,0.0248 1.24333,1.53426 2.60907,3.35436 l 2.48316,3.30929 -2.62159,1.53071 c -1.44187,0.8419 -2.66463,1.53072 -2.71725,1.53072 -0.0526,0 -0.16694,-0.162 -0.25404,-0.36 z M 28.50789,129.54969 C 28.31655,129.34601 28.16,129.13443 28.16,129.07951 c 0,-0.0549 0.946126,-0.94576 2.102503,-1.97963 l 2.102504,-1.87977 0.384962,0.44755 c 0.21173,0.24615 0.363603,0.50413 0.337497,0.5733 -0.06886,0.18244 -3.982401,3.67904 -4.117736,3.67904 -0.06267,0 -0.270501,-0.16664 -0.46184,-0.37031 z m 102.97234,-1.41689 c -1.10512,-0.98296 -1.97534,-1.86496 -1.93383,-1.96 0.0415,-0.095 0.28586,-0.33969 0.54298,-0.54367 l 0.46749,-0.37088 1.72156,1.55504 c 0.94686,0.85527 1.85235,1.67695 2.01221,1.82596 0.27977,0.26078 0.27475,0.28979 -0.13423,0.77583 -0.23367,0.2777 -0.47931,0.50492 -0.54586,0.50492 -0.0666,0 -1.0252,-0.80424 -2.13032,-1.7872 z m -55.114484,-0.56934 c -0.903652,-0.44998 -1.005747,-0.90836 -1.005747,-4.51559 0,-3.53176 0.09066,-3.96252 0.922708,-4.38394 0.333589,-0.16896 1.660978,-0.24233 5.597292,-0.30938 l 5.16,-0.0879 v 0.94437 0.94436 l -4.92,0.0423 -4.92,0.0423 v 0.64 0.64 l 4.32,0.007 c 3.930515,0.007 4.360407,0.034 4.768178,0.30376 0.747897,0.49473 0.911822,1.01543 0.911822,2.89632 0,3.06298 -0.104454,3.1166 -6.043238,3.1024 -3.585567,-0.009 -4.359874,-0.0516 -4.791015,-0.26631 z m 8.822824,-1.73489 c 0.165873,-0.16587 0.251429,-0.54253 0.251429,-1.10691 0,-1.46807 0.332681,-1.36166 -4.257118,-1.36166 h -4.062882 v 1.10857 c 0,1.67481 -0.163618,1.61143 4.16,1.61143 3.111342,0 3.694666,-0.0375 3.908571,-0.25143 z M 141.12,124.36353 c -0.74894,-0.2846 -4.99828,-2.84409 -5.20002,-3.13211 -0.33121,-0.47287 -0.30021,-1.21106 0.0787,-1.87392 0.17528,-0.30663 0.53446,-0.96783 0.79818,-1.46934 0.66347,-1.2617 1.20143,-1.72816 1.99304,-1.72816 0.8415,0 5.35417,2.53899 5.77307,3.24814 0.40245,0.68129 0.22246,1.37421 -0.80361,3.09363 -1.05318,1.76485 -1.69781,2.21956 -2.63937,1.86176 z m 1.18723,-2.14418 c -0.0474,-0.0767 -0.0213,-0.13935 0.0579,-0.13935 0.23583,0 1.00518,-1.54695 0.90247,-1.81462 -0.0972,-0.25342 -4.17114,-2.66538 -4.50193,-2.66538 -0.22513,0 -0.66276,0.60616 -1.24331,1.72208 -0.33507,0.64407 -0.39566,0.89321 -0.25768,1.05946 0.18571,0.22376 3.9065,2.39744 4.33532,2.53268 0.26861,0.0847 0.8413,-0.47796 0.70723,-0.69487 z M 18.567057,121.45208 C 18.211176,120.84273 17.92,120.27922 17.92,120.19984 c 0,-0.0794 0.576,-0.46178 1.28,-0.84977 0.704,-0.38799 1.28,-0.76048 1.28,-0.82776 0,-0.0673 0.08436,-0.12231 0.18746,-0.12231 0.211413,0 3.744841,-2.00484 4.164329,-2.36281 0.244242,-0.20842 0.304996,-0.17746 0.599402,0.30544 0.180187,0.29555 0.327882,0.58608 0.328211,0.64563 3.28e-4,0.0595 -0.395402,0.33482 -0.879402,0.61174 -0.484,0.27691 -0.88,0.5537 -0.88,0.61509 0,0.0614 0.332448,0.67952 0.738775,1.37365 1.102039,1.88261 1.216902,2.20912 0.92418,2.62704 -0.232666,0.33218 -0.349684,0.34422 -3.34497,0.34422 h -3.10387 z m 5.245657,-0.52012 C 23.68084,120.72738 23.37419,120.218 23.131268,119.8 c -0.242921,-0.418 -0.524834,-0.75929 -0.626472,-0.75842 -0.344716,0.003 -3.510656,1.9512 -3.339641,2.05515 0.09345,0.0568 1.231326,0.12665 2.528617,0.15523 l 2.358711,0.052 z m -7.12571,-3.09305 c -0.189309,-0.13259 -0.726346,-0.90659 -1.193416,-1.72 -1.021248,-1.7785 -1.136862,-2.63236 -0.435015,-3.21277 0.954847,-0.78962 1.081976,-0.8784 1.404323,-0.98071 0.185407,-0.0589 0.337104,-0.18614 0.337104,-0.28288 0,-0.0967 0.04152,-0.13436 0.09227,-0.0836 0.05075,0.0507 0.788747,-0.31293 1.639999,-0.80818 1.637588,-0.95274 2.562718,-1.15627 3.126997,-0.68796 0.529961,0.43983 2.020769,3.29414 2.01994,3.8674 -0.0012,0.84026 -0.492131,1.27818 -3.115255,2.77895 -2.523161,1.44358 -3.162803,1.62998 -3.876946,1.12977 z m 1.731418,-1.49906 c 0.209868,-0.16508 0.453578,-0.30849 0.541578,-0.31869 0.088,-0.0102 0.273104,-0.10913 0.411343,-0.21985 0.138238,-0.11072 0.354238,-0.22498 0.48,-0.25391 0.125761,-0.0289 0.336657,-0.13743 0.468657,-0.24111 0.132,-0.10368 0.589828,-0.36801 1.017397,-0.5874 0.427568,-0.21939 0.811677,-0.48474 0.853575,-0.58966 0.09429,-0.23613 -0.987538,-2.32413 -1.395425,-2.69326 -0.283647,-0.2567 -0.40893,-0.20678 -2.507057,0.99883 -2.500628,1.43689 -2.472603,1.38864 -1.625014,2.79752 0.914293,1.51975 1.089959,1.63061 1.754946,1.10753 z m 126.626338,1.4661 c -0.50452,-0.13282 -1.93273,-0.98116 -2.25927,-1.34198 -0.47182,-0.52136 -0.36107,-1.41915 0.31507,-2.5542 0.31996,-0.53712 0.54098,-1.04255 0.49115,-1.12318 -0.0498,-0.0806 -0.0144,-0.14659 0.0788,-0.14659 0.35313,0 0.14561,-0.33525 -0.49457,-0.799 -0.3652,-0.26455 -0.75458,-0.481 -0.86529,-0.481 -0.1107,0 -0.65056,0.774 -1.19968,1.72 -0.54912,0.946 -1.01831,1.74457 -1.04265,1.77461 -0.0699,0.0863 -0.60109,-0.12237 -0.90917,-0.35711 -0.26075,-0.19867 -0.22006,-0.3155 0.56967,-1.63573 0.65458,-1.0943 1.66808,-2.91677 1.97612,-3.55343 0.0455,-0.0941 2.68824,1.44384 3.05256,1.77643 0.68256,0.62311 0.64224,1.25215 -0.18196,2.83864 l -0.74263,1.42948 0.66752,0.48356 c 0.36714,0.26595 0.7955,0.48355 0.95191,0.48355 0.34394,0 0.86671,-0.63357 1.13502,-1.37557 0.10828,-0.29944 0.23791,-0.54443 0.28807,-0.54443 0.0502,0 0.26819,-0.324 0.48452,-0.72 0.21632,-0.396 0.45239,-0.72 0.5246,-0.72 0.0722,0 0.34813,0.11213 0.61316,0.24919 l 0.48188,0.24918 -0.38626,0.67082 c -1.42922,2.48213 -1.72346,2.94799 -2.0584,3.25895 -0.41102,0.3816 -1.00025,0.5468 -1.49022,0.41781 z M 32.237695,110.29563 c -0.85251,-1.45602 -1.488746,-2.70359 -1.413857,-2.77237 0.150342,-0.13808 7.043823,-3.14986 7.397361,-3.23192 0.222854,-0.0517 2.318032,3.30029 2.225218,3.56007 -0.02553,0.0714 -1.534182,1.24628 -3.35256,2.61072 l -3.306143,2.4808 z m 93.283895,0.25907 c -1.75912,-1.30071 -3.25951,-2.4618 -3.33419,-2.5802 -0.15027,-0.23823 1.73368,-3.6545 2.01533,-3.6545 0.19679,0 7.34701,3.03616 7.52308,3.19448 0.10642,0.0957 -2.57855,5.01231 -2.89725,5.30533 -0.0597,0.0549 -1.54784,-0.9644 -3.30697,-2.26511 z m 20.45721,-6.82324 -2.58119,-0.86559 0.16066,-0.63294 c 0.0884,-0.34811 0.24189,-0.63236 0.34119,-0.63166 0.0993,7e-4 1.26054,0.34989 2.58054,0.77599 1.58959,0.51312 2.41625,0.85753 2.44812,1.01996 0.0265,0.13488 -0.0455,0.46002 -0.16,0.72254 l -0.20812,0.47729 z m -132.222338,0.17782 c -0.103595,-0.3139 -0.163179,-0.58963 -0.132409,-0.61274 0.03077,-0.0231 1.135947,-0.38652 2.455947,-0.80759 1.32,-0.42106 2.488806,-0.83715 2.597348,-0.92465 0.142209,-0.11463 0.236824,-0.0536 0.338635,0.21831 0.406468,1.08571 0.562656,0.95247 -2.181939,1.86135 -1.388553,0.45982 -2.606674,0.83604 -2.706935,0.83604 -0.100261,0 -0.267052,-0.25683 -0.370647,-0.57072 z M 11.868424,96.768281 C 11.751879,96.309129 11.758887,96.121779 11.894341,96.075454 11.996453,96.040532 13.232,95.767042 14.64,95.467699 l 2.56,-0.544261 0.143418,0.621529 c 0.07888,0.34184 0.11488,0.647843 0.08,0.680006 -0.03488,0.03216 -1.263081,0.309165 -2.729335,0.61556 l -2.665917,0.557081 z M 148.72,97.035635 c -0.88,-0.201903 -2.02212,-0.452308 -2.53804,-0.556455 l -0.93804,-0.189358 0.10537,-0.658905 c 0.058,-0.362398 0.12681,-0.680359 0.15304,-0.70658 0.0628,-0.06281 5.24164,1.0463 5.33869,1.143349 0.12407,0.124074 -0.19518,1.265128 -0.36412,1.301377 -0.0863,0.01852 -0.8769,-0.131525 -1.7569,-0.333428 z M 10.692048,89.43445 c -0.03624,-0.379968 0.008,-0.692582 0.101999,-0.721285 0.405913,-0.123915 5.258065,-0.539845 5.384698,-0.461581 0.07769,0.04802 0.141255,0.333679 0.141255,0.634809 0,0.63989 0.05328,0.620612 -2.4,0.868307 -0.924,0.09329 -2.0139,0.21029 -2.421999,0.259998 l -0.741998,0.09038 z m 138.028362,0.344876 -2.39959,-0.259327 0.0545,-0.64 c 0.03,-0.352 0.0772,-0.663455 0.10504,-0.692122 0.0589,-0.06074 5.41239,0.465627 5.49552,0.540335 0.0307,0.02762 0.006,0.343075 -0.0541,0.701005 -0.0906,0.536198 -0.17086,0.647142 -0.45589,0.630109 -0.19026,-0.01137 -1.42575,-0.13737 -2.74552,-0.28 z M 37.439999,85.839999 v -0.88 l 1.4,-0.0014 c 2.172785,-0.0022 8.096663,-0.177906 8.32,-0.246838 0.11059,-0.03413 0.2,-0.314322 0.2,-0.626751 v -0.565021 l -4.12,-0.0035 c -3.735696,-0.0032 -4.18399,-0.03256 -4.806022,-0.314874 -0.918412,-0.416832 -1.153978,-1.005066 -1.153978,-2.881612 0,-1.731243 0.241113,-2.422148 0.987396,-2.829373 0.464853,-0.253657 1.03067,-0.297351 4.447998,-0.343487 4.739799,-0.06399 5.170423,-0.01332 5.874962,0.691216 l 0.529644,0.529644 v 3.557107 3.557108 l -0.546949,0.51584 c -0.331772,0.312901 -0.788132,0.555689 -1.16,0.617131 -0.337178,0.05571 -2.719051,0.102084 -5.293051,0.103053 l -4.68,0.0018 z m 7.72,-4.239172 2.2,-8.28e-4 -0.0025,-1.08 c -0.0013,-0.594 -0.0712,-1.188 -0.155225,-1.32 -0.130567,-0.205111 -0.717506,-0.231952 -4.03755,-0.184634 -2.136626,0.03045 -3.91937,0.08905 -3.961654,0.130213 -0.103985,0.101235 -0.139974,1.788375 -0.04583,2.148389 0.102061,0.39028 0.499901,0.455784 2.282707,0.375844 0.836,-0.03749 2.51,-0.06853 3.72,-0.06898 z M 113.92,85.848534 v -0.888535 h 4.52942 c 5.23669,0 5.16813,0.01628 5.03161,-1.194909 -0.0474,-0.420568 -0.18403,-0.826662 -0.30361,-0.90243 -0.11958,-0.07577 -1.60342,-0.138864 -3.29742,-0.140211 l -3.08,-0.0024 v -0.8 -0.8 l 2.84,-0.01189 c 3.0921,-0.01295 3.55808,-0.05659 3.75994,-0.352151 0.13448,-0.196913 0.0412,-1.455158 -0.12814,-1.729228 -0.0516,-0.08351 -2.08595,-0.146731 -4.72124,-0.146731 H 113.92 v -0.88 -0.88 l 4.76,0.009 c 5.15719,0.0098 5.61341,0.07188 6.18432,0.84177 0.43631,0.588385 0.56922,2.702083 0.21419,3.406386 -0.19619,0.389204 -0.19987,0.539155 -0.0231,0.942813 0.29537,0.674576 0.28421,2.700631 -0.0181,3.285237 -0.50908,0.984459 -0.76813,1.02974 -6.19729,1.083298 l -4.92,0.04854 z M 24.64,81.919999 v -3.04 l 0.52,0.01344 c 0.286,0.0074 2.176,0.205395 4.2,0.44 l 3.68,0.426556 0.04276,2.112232 0.04276,2.112232 -0.522759,0.08808 c -0.764823,0.128873 -7.317607,0.887451 -7.666018,0.887451 -0.278576,0 -0.296741,-0.186092 -0.296741,-3.04 z m 108.48,2.600227 c -1.892,-0.220479 -3.45987,-0.417592 -3.48415,-0.438028 -0.0243,-0.02044 -0.0892,-0.97799 -0.14415,-2.127897 l -0.10001,-2.09074 0.54416,-0.09298 c 0.78701,-0.134473 7.29954,-0.890585 7.67076,-0.890585 0.30019,0 0.31339,0.128059 0.31339,3.04 v 3.04 l -0.68,-0.01945 c -0.374,-0.0107 -2.228,-0.199843 -4.12,-0.420323 z M 5.7599999,81.999999 v -1.204495 l 5.0800001,0.04225 5.08,0.04225 v 1.12 1.12 l -5.08,0.04225 -5.0800001,0.04225 z m 140.9600001,0 v -1.2 h 5.12 5.12 v 1.2 1.2 h -5.12 -5.12 z M 13.2,75.539326 l -2.4,-0.259327 -0.0492,-0.68 c -0.05875,-0.811993 -0.193951,-0.791754 2.9292,-0.438477 1.144,0.129404 2.206,0.235999 2.36,0.236879 0.183884,0.001 0.27925,0.125176 0.277815,0.361598 -0.0039,0.65001 -0.189427,1.080452 -0.456476,1.059327 C 15.717602,75.807957 14.52,75.681957 13.2,75.539326 Z m 133.17085,-0.357414 c -0.0353,-0.369764 0.01,-0.681014 0.10319,-0.710418 0.0913,-0.02878 1.27655,-0.16818 2.63395,-0.309772 1.3574,-0.141591 2.52102,-0.290209 2.58582,-0.330261 0.13946,-0.08619 0.37913,1.188929 0.2481,1.319959 -0.0494,0.04942 -1.29857,0.222868 -2.77589,0.385434 -1.47731,0.162566 -2.69646,0.297278 -2.70922,0.29936 -0.0127,0.0021 -0.0514,-0.292354 -0.0859,-0.654302 z M 14.110403,68.423364 c -1.259279,-0.276851 -2.285164,-0.575365 -2.279746,-0.663365 0.0054,-0.088 0.05523,-0.40188 0.110689,-0.697512 0.09378,-0.499876 0.13577,-0.531267 0.599746,-0.448323 1.252028,0.223822 4.749111,1.022705 4.82972,1.103314 0.0494,0.0494 0.04117,0.349179 -0.0183,0.666172 -0.134367,0.716239 -0.163267,0.716593 -3.242107,0.03971 z m 131.239277,0.09663 c -0.053,-0.242 -0.11889,-0.516318 -0.14636,-0.609596 -0.0278,-0.09446 0.49204,-0.285933 1.17337,-0.432178 0.67282,-0.14442 1.90147,-0.40994 2.73033,-0.590044 0.82887,-0.180104 1.53173,-0.302761 1.56192,-0.272571 0.0302,0.03019 0.072,0.329987 0.093,0.666216 l 0.0381,0.611326 -2.4,0.527514 c -1.32,0.290132 -2.52463,0.530173 -2.67695,0.533423 -0.17444,0.0037 -0.31264,-0.156963 -0.37337,-0.43409 z M 16.16,61.569505 c -1.364,-0.440912 -2.494756,-0.815179 -2.512792,-0.831706 -0.04732,-0.04337 0.358124,-1.196466 0.45463,-1.292971 0.06159,-0.06159 3.692494,1.079678 5.052303,1.588051 0.150905,0.05642 0.148014,0.205817 -0.01298,0.670845 -0.113918,0.329045 -0.273282,0.613828 -0.354141,0.632851 C 18.706157,62.355598 17.524,62.010416 16.16,61.569505 Z m 127.36008,0.270741 c -0.10559,-0.319928 -0.15838,-0.615287 -0.11731,-0.656353 0.1231,-0.123102 4.22641,-1.479859 4.80242,-1.58792 0.50449,-0.09464 0.54346,-0.06833 0.71193,0.480596 0.20948,0.682545 0.45626,0.542308 -2.70299,1.536065 -1.17377,0.369217 -2.21692,0.702353 -2.3181,0.740302 -0.10119,0.03795 -0.27036,-0.192761 -0.37595,-0.51269 z m -19.48031,-2.362009 c -0.35618,-0.451214 -1.96777,-3.373506 -1.92555,-3.491574 0.0252,-0.0704 1.53496,-1.245414 3.35506,-2.611153 l 3.30929,-2.483162 1.54702,2.649517 c 0.85087,1.457234 1.48569,2.706143 1.41072,2.775354 -0.075,0.06921 -1.75631,0.826436 -3.73631,1.682722 -1.98,0.856286 -3.64584,1.583805 -3.70187,1.616709 -0.056,0.0329 -0.17229,-0.02938 -0.25836,-0.138413 z M 34.452665,57.943564 c -1.951034,-0.848961 -3.592494,-1.589025 -3.647688,-1.644586 -0.09035,-0.09096 0.351828,-0.91022 2.338059,-4.331904 l 0.622815,-1.072925 3.291734,2.418041 c 1.810453,1.329923 3.322903,2.499268 3.360999,2.598545 0.120028,0.312788 -1.856009,3.611137 -2.152461,3.592829 -0.146368,-0.009 -1.862424,-0.711039 -3.813458,-1.56 z M 20.361716,54.853018 c -0.434309,-0.268546 -0.491726,-0.370094 -0.35437,-0.626745 0.09015,-0.16845 0.120236,-0.306274 0.06686,-0.306274 -0.05338,0 0.0079,-0.104974 0.136218,-0.233277 0.421604,-0.421604 1.54897,-2.622142 1.460917,-2.851605 -0.07903,-0.205938 -1.05548,-0.842259 -1.694712,-1.104382 -0.343908,-0.141024 -0.533234,0.08893 -1.571912,1.909264 -0.464468,0.814 -0.909509,1.48 -0.988982,1.48 -0.108173,0 -3.274811,-1.761863 -3.635169,-2.022546 -0.03269,-0.02365 0.132343,-0.370251 0.366744,-0.770226 0.234401,-0.399975 0.384344,-0.727228 0.333207,-0.727228 -0.05114,0 0.04823,-0.151563 0.220805,-0.336806 0.172581,-0.185244 0.406345,-0.563244 0.519476,-0.84 0.113131,-0.276757 0.299395,-0.598998 0.413921,-0.716093 0.114525,-0.117094 0.167316,-0.279094 0.117314,-0.36 -0.05,-0.0809 -0.026,-0.147101 0.05333,-0.147101 0.07934,0 0.280206,-0.252459 0.446377,-0.561021 0.166172,-0.308562 0.33951,-0.540252 0.385196,-0.514866 0.04568,0.02538 0.281065,0.145402 0.523065,0.266704 0.242,0.121301 0.44,0.294459 0.44,0.384794 0,0.09034 -0.432,0.904806 -0.96,1.809935 -0.528,0.90513 -0.96,1.706404 -0.96,1.78061 0,0.120926 1.12972,0.833844 1.321345,0.833844 0.04278,0 0.320973,-0.404307 0.618215,-0.89846 1.362641,-2.26534 1.898406,-2.496368 3.652102,-1.574827 1.465585,0.770144 1.989635,1.370416 1.883995,2.158023 -0.05913,0.440838 -2.113046,4.369657 -2.249015,4.302009 -0.01465,-0.0073 -0.25987,-0.157467 -0.544926,-0.333726 z M 141.04,52.51364 c -0.52857,-0.108333 -1.01412,-0.670429 -1.86786,-2.162329 -0.71766,-1.254084 -0.80056,-1.49356 -0.72139,-2.083863 0.0586,-0.436952 0.22342,-0.777387 0.47793,-0.987199 C 139.87501,46.5001 140,46.408189 140,46.49246 c 0,0.04913 0.20911,-0.05957 0.4647,-0.241566 0.25558,-0.181992 0.50551,-0.330895 0.55539,-0.330895 0.0499,0 0.63492,-0.321754 1.30008,-0.715009 1.6571,-0.979706 2.33934,-1.173845 2.88006,-0.819552 0.69483,0.455269 2.32037,3.237368 2.31917,3.969242 -0.001,0.802615 -0.55367,1.30383 -2.92388,2.653183 -2.39511,1.363524 -2.9999,1.619655 -3.55552,1.505777 z m 1.86086,-2.06731 C 143.50539,50.119811 144,49.791562 144,49.716887 c 0,-0.07467 0.0635,-0.09651 0.14119,-0.04851 0.0777,0.04799 0.31166,-0.04558 0.52,-0.207935 0.20835,-0.162358 0.61647,-0.41712 0.90695,-0.566139 0.43119,-0.221206 0.50825,-0.335499 0.41976,-0.622623 -0.17698,-0.574251 -1.32349,-2.468078 -1.54581,-2.553388 -0.26649,-0.102261 -4.50858,2.334628 -4.56522,2.622512 -0.0694,0.352961 1.38035,2.699195 1.6679,2.699195 0.14132,0 0.75156,-0.267151 1.35609,-0.593669 z M 21.12,47.187818 c -1.276,-0.720882 -2.518,-1.494518 -2.76,-1.719191 -0.687817,-0.638571 -0.60941,-1.422721 0.299166,-2.991973 1.627297,-2.810593 1.966333,-2.884064 5.06587,-1.097802 2.673789,1.540903 2.911077,1.712353 3.142217,2.270375 0.238565,0.575945 0.02186,1.25699 -0.900716,2.830772 -1.412091,2.408812 -1.748675,2.457969 -4.846537,0.707819 z m 3.618741,-1.227819 c 0.924499,-1.552911 0.92803,-1.574164 0.334957,-2.016226 -0.81387,-0.60664 -3.91184,-2.343774 -4.179839,-2.343774 -0.252324,0 -1.527993,2.133282 -1.531744,2.561513 -0.0012,0.132832 0.159885,0.345051 0.357885,0.471598 0.671438,0.429134 4.1916,2.406889 4.283968,2.406889 0.0505,0 0.381146,-0.486 0.734773,-1.08 z M 136.25878,45.537606 c -0.48145,-0.821528 -0.48718,-0.843684 -0.21878,-0.845998 0.22836,-0.002 3.01894,-1.783956 3.19755,-2.041865 0.0647,-0.09336 0.11865,-0.117359 0.12,-0.05333 0.002,0.101708 2.01084,-1.123701 3.22917,-1.969955 l 0.42672,-0.296403 0.40222,0.674973 c 0.30787,0.516649 0.3579,0.71798 0.21328,0.858321 -0.10392,0.100842 -1.55151,1.025417 -3.21687,2.054612 -1.66536,1.029195 -3.18691,1.975432 -3.38122,2.10275 -0.33569,0.219947 -0.37417,0.195864 -0.77207,-0.483103 z M 73.759999,40.719999 v -4.72 h 0.8 0.8 v 4.72 4.72 h -0.8 -0.8 z m 3.680598,2.76 c 5.06e-4,-1.65846 0.04842,-2.038429 0.311438,-2.469788 0.546068,-0.895569 0.68908,-0.92331 5.207964,-1.010212 l 4.16,-0.08 0.048,-1.013969 c 0.02887,-0.609825 -0.02677,-1.10406 -0.139591,-1.24 -0.153668,-0.185159 -1.023075,-0.226031 -4.807997,-0.226031 h -4.620409 v -0.72 -0.72 h 4.887945 c 5.452304,0 5.662949,0.03619 6.084659,1.045488 0.292655,0.700421 0.293097,2.647546 7.6e-4,3.347206 -0.448815,1.074166 -0.660208,1.122954 -5.045999,1.16459 -2.160051,0.02051 -4.053365,0.06777 -4.207365,0.105021 -0.233986,0.0566 -0.28,0.254255 -0.28,1.202716 v 1.134979 h 4.88 4.88 v 0.72 0.72 h -5.68 -5.68 z m -24.675051,-5.709714 -2.511732,-3.349714 2.648784,-1.546594 c 1.456831,-0.850627 2.702672,-1.485256 2.768535,-1.410286 0.135881,0.15467 3.155857,7.05738 3.236452,7.397508 0.03248,0.137066 -0.605507,0.608704 -1.677348,1.24 -0.95137,0.56034 -1.779982,1.0188 -1.841361,1.0188 -0.06138,0 -1.241877,-1.507371 -2.62333,-3.349714 z m 52.594464,2.3782 c -0.87999,-0.521625 -1.62349,-1.01891 -1.65221,-1.105077 -0.0508,-0.152283 2.94997,-7.317652 3.16985,-7.569217 0.0935,-0.106971 5.01769,2.58456 5.30055,2.897248 0.14129,0.156183 -4.69633,6.659184 -4.98066,6.69529 -0.13065,0.01659 -0.95754,-0.396619 -1.83753,-0.918244 z m -75.239499,-3.274621 -2.104675,-1.890065 0.352082,-0.299144 c 0.193645,-0.16453 0.432209,-0.404144 0.530142,-0.532476 0.147084,-0.192741 0.522839,0.07637 2.16,1.546973 1.090067,0.979168 2.000587,1.827371 2.023379,1.884895 0.02279,0.05752 -0.160541,0.346532 -0.407407,0.642237 l -0.448846,0.537646 z m 99.811099,1.424558 c -0.18239,-0.231868 -0.33159,-0.465868 -0.33157,-0.52 2e-5,-0.05413 0.48602,-0.540499 1.08,-1.080814 0.59398,-0.540316 1.51196,-1.384119 2.03996,-1.875119 l 0.96,-0.892728 0.45558,0.495088 c 0.44154,0.479816 0.44647,0.503721 0.16,0.77495 -0.85628,0.810726 -3.90883,3.5202 -3.96593,3.5202 -0.0365,0 -0.21565,-0.189709 -0.39804,-0.421577 z M 35.236936,31.919561 c -0.903685,-1.006145 -1.675687,-1.921652 -1.715561,-2.034458 -0.08325,-0.235535 0.653504,-1.136282 0.864935,-1.057454 0.07723,0.02879 0.947477,0.950944 1.933888,2.049225 l 1.793475,1.996874 -0.530793,0.443126 c -0.291936,0.243719 -0.569513,0.440632 -0.616837,0.437584 -0.04732,-0.003 -0.825422,-0.828751 -1.729107,-1.834897 z m 89.780664,1.458516 -0.4576,-0.396855 0.72,-0.767532 c 0.396,-0.422142 0.774,-0.792917 0.84,-0.823944 0.066,-0.03103 0.12,-0.115694 0.12,-0.188149 0,-0.07245 0.49924,-0.659471 1.10944,-1.30448 l 1.10943,-1.172744 0.41057,0.385704 c 0.2258,0.212137 0.41056,0.442443 0.41056,0.511792 0,0.148387 -3.47689,4.035965 -3.67188,4.105597 -0.0731,0.02611 -0.33884,-0.131119 -0.59052,-0.349389 z m -45.870108,0.0663 -3.812506,-0.08438 L 77.530869,30.64 c 1.207736,-1.496 2.557874,-3.16949 3.000308,-3.718866 0.442434,-0.549375 0.830713,-0.972576 0.862843,-0.940446 0.31617,0.31617 5.805979,7.404483 5.805979,7.496544 0,0.124248 -1.169199,0.119477 -8.052507,-0.03286 z M 41.400077,28.281618 c -0.470201,-0.63889 -1.189414,-1.632932 -1.59825,-2.208982 l -0.743338,-1.047363 0.56476,-0.450632 c 0.310617,-0.247848 0.620862,-0.388534 0.689432,-0.312637 0.326762,0.36168 3.047318,4.208012 3.047318,4.308309 0,0.122319 -0.386885,0.454135 -0.832505,0.714007 -0.226479,0.132075 -0.416898,-0.03728 -1.127417,-1.002702 z m 78.336913,0.779177 -0.44617,-0.383777 0.47414,-0.698509 c 0.26078,-0.38418 0.51072,-0.734509 0.55543,-0.778509 0.2629,-0.25871 1.87736,-2.526666 1.96473,-2.76 0.0577,-0.154 0.16938,-0.28 0.24828,-0.28 0.28887,0 1.0037,0.684651 0.92606,0.886966 -0.10681,0.278353 -2.96552,4.20553 -3.13968,4.313166 -0.0751,0.04644 -0.3374,-0.08826 -0.58279,-0.299337 z M 45.058444,21.596364 c -1.374144,-2.379308 -2.498445,-4.351428 -2.498445,-4.382489 0,-0.03106 0.446777,-0.322619 0.992838,-0.647906 0.929955,-0.553971 1.006013,-0.573413 1.200849,-0.306959 0.683904,0.935295 4.850588,8.437923 4.740123,8.535175 -0.0736,0.06479 -0.539509,0.345141 -1.035365,0.622998 l -0.901555,0.505195 z m 68.983726,3.791746 c -0.50481,-0.279461 -0.91881,-0.55942 -0.92,-0.622132 -0.001,-0.06271 0.76113,-1.430711 1.69405,-3.04 2.43018,-4.192063 2.43008,-4.191882 2.43342,-4.34809 0.002,-0.07816 0.0711,-0.186161 0.15437,-0.24 0.0832,-0.05384 0.27123,-0.331888 0.41777,-0.617888 0.14654,-0.286 0.31859,-0.519099 0.38233,-0.517998 0.0637,0.0011 0.52633,0.235821 1.02797,0.521599 l 0.91209,0.519597 -2.48444,4.318401 c -1.36645,2.37512 -2.53288,4.36705 -2.59209,4.426511 -0.0592,0.05946 -0.52067,-0.120539 -1.02547,-0.4 z M 52.913579,19.981066 c -0.587984,-1.330413 -1.033076,-2.477161 -0.989092,-2.548327 0.08858,-0.143324 1.193167,-0.537448 1.257505,-0.448686 0.0436,0.06015 1.594371,3.551885 1.963987,4.422134 0.222614,0.524138 0.221306,0.527097 -0.336109,0.76 C 54.502094,22.294784 54.190059,22.4 54.116459,22.4 c -0.0736,0 -0.614896,-1.08852 -1.20288,-2.418934 z M 107.76,22.211538 c -0.176,-0.0983 -0.34202,-0.196131 -0.36893,-0.217396 -0.0429,-0.03394 1.90957,-4.487574 2.18526,-4.984507 0.0788,-0.141992 0.25457,-0.121664 0.69184,0.08 l 0.58624,0.270365 -1.12671,2.52 c -1.16105,2.596801 -1.26732,2.722724 -1.9677,2.331538 z M 59.61225,17.478659 c -0.431276,-1.385262 -0.790463,-2.584282 -0.798194,-2.664488 -0.0077,-0.08021 0.281459,-0.2346 0.642644,-0.343097 l 0.656701,-0.197268 0.766312,2.423097 c 0.421471,1.332703 0.799275,2.512096 0.839563,2.620873 0.0677,0.182774 -0.173078,0.322156 -1.001083,0.579519 -0.292977,0.09106 -0.392053,-0.125611 -1.105943,-2.418636 z M 101.52,19.805463 c -0.264,-0.0931 -0.50387,-0.189286 -0.53305,-0.213747 -0.0486,-0.04074 1.56587,-5.199544 1.66731,-5.327663 0.0998,-0.126036 1.18574,0.334682 1.18574,0.503056 0,0.289914 -1.66343,5.234261 -1.75626,5.220259 -0.0461,-0.0069 -0.29974,-0.0888 -0.56374,-0.181905 z M 66.975832,17.8 c -0.192136,-0.627526 -1.077898,-5.031268 -1.02302,-5.086147 0.03256,-0.03256 0.348332,-0.105434 0.701714,-0.161942 l 0.642514,-0.102742 0.51148,2.457349 c 0.281313,1.351543 0.511479,2.57348 0.511479,2.715416 0,0.161034 -0.187999,0.295665 -0.5,0.358066 -0.707139,0.141428 -0.748448,0.132619 -0.844167,-0.18 z m 27.617206,0.16617 c -0.255831,-0.04898 -0.341624,-0.151399 -0.283297,-0.338211 0.04602,-0.147377 0.224862,-0.957056 0.397437,-1.799286 0.30532,-1.490074 0.624611,-2.918191 0.736529,-3.294332 0.04085,-0.137305 0.226956,-0.142073 0.71456,-0.01831 0.370594,0.09407 0.629219,0.245791 0.590584,0.346471 -0.0378,0.09852 -0.30597,1.312752 -0.595927,2.698306 -0.571771,2.732207 -0.492344,2.609729 -1.559886,2.405358 z M 73.753199,16.6 c -0.0037,-0.198 -0.132761,-1.424979 -0.286713,-2.726621 -0.153952,-1.301641 -0.246892,-2.399641 -0.206533,-2.44 0.04036,-0.04036 0.348007,-0.07338 0.683664,-0.07338 0.726502,0 0.672493,-0.163736 1.001378,3.035798 0.261532,2.544294 0.258129,2.557402 -0.664996,2.561752 -0.431327,0.002 -0.52116,-0.05894 -0.5268,-0.35755 z m 13.845311,0.169735 c -0.04341,-0.115354 0.04951,-1.39728 0.206471,-2.848723 l 0.285388,-2.638987 0.634815,0.0539 c 0.349148,0.02964 0.652163,0.07054 0.673366,0.09087 0.0212,0.02033 -0.08759,1.255626 -0.241764,2.745089 L 88.876472,16.88 l -0.599523,0.04974 c -0.385858,0.03201 -0.627647,-0.02501 -0.678439,-0.16 z m -9.73878,-5.056045 -3.486222,-4.4336901 3.453245,-0.04312 c 1.899285,-0.023716 5.000072,-0.023716 6.890637,0 l 3.437392,0.04312 -3.339495,4.3687701 c -1.836722,2.402823 -3.368709,4.397984 -3.404415,4.43369 -0.03571,0.03571 -1.63372,-1.930241 -3.551142,-4.36877 z"
       id="path1" />
  </g>
</svg>
