<?xml version="1.0" encoding="UTF-8" standalone="no"?>
<!-- Created with Inkscape (http://www.inkscape.org/) -->

<svg
   version="1.1"
   id="svg1"
   width="1036.0042"
   height="1020.5046"
   viewBox="0 0 1036.0042 1020.5046"
   sodipodi:docname="clock-face-9-symbolic.svg"
   inkscape:version="1.4 (e7c3feb100, 2024-10-09)"
   xmlns:inkscape="http://www.inkscape.org/namespaces/inkscape"
   xmlns:sodipodi="http://sodipodi.sourceforge.net/DTD/sodipodi-0.dtd"
   xmlns="http://www.w3.org/2000/svg"
   xmlns:svg="http://www.w3.org/2000/svg">
  <defs
     id="defs1" />
  <sodipodi:namedview
     id="namedview1"
     pagecolor="#505050"
     bordercolor="#ffffff"
     borderopacity="1"
     inkscape:showpageshadow="0"
     inkscape:pageopacity="0"
     inkscape:pagecheckerboard="1"
     inkscape:deskcolor="#505050"
     inkscape:zoom="4.102564"
     inkscape:cx="519.18752"
     inkscape:cy="150.15001"
     inkscape:window-width="1920"
     inkscape:window-height="1011"
     inkscape:window-x="0"
     inkscape:window-y="0"
     inkscape:window-maximized="1"
     inkscape:current-layer="g1" />
  <g
     inkscape:groupmode="layer"
     inkscape:label="Image"
     id="g1"
     transform="translate(-279.97188,-248.625)">
    <path
       id="path25-5"
       style="fill:#000000;stroke-width:1.35677;stroke-dasharray:1.35677;stroke-dashoffset:0.678385"
       d="m 1250.6445,686.55101 c -16.9177,0.0922 -33.8381,0.14693 -50.7541,0.26251 -5.068,0.76365 -10.1361,1.52672 -15.2038,2.29202 -3.3188,2.90325 -6.6381,5.8061 -9.9587,8.70724 -1.1365,5.07527 -2.3449,10.14447 -3.4356,15.22376 0.28,6.22207 0.6295,12.47901 0.7113,18.72172 0.407,1.39503 1.947,1.86374 3.2467,1.95334 4.4808,0.32261 8.9769,-0.0352 13.4522,-0.29443 1.2471,-0.0881 2.4943,-0.17635 3.7414,-0.26481 0.066,-6.0036 0.1351,-12.00717 0.2021,-18.01077 1.0286,-1.45281 2.0572,-2.90562 3.0857,-4.35844 2.2842,-0.25145 4.5627,-0.62057 6.8486,-0.81203 10.3894,-0.0294 20.7794,-0.10069 31.1664,-0.34702 3.7159,-0.0727 7.4318,-0.14556 11.1477,-0.21834 1.8613,0.97922 3.7227,1.95845 5.584,2.93767 0.378,2.55509 0.8774,5.10019 1.1792,7.66153 0.014,5.3134 0.09,10.63384 0.065,15.94286 -0.4099,1.75126 -0.8197,3.50252 -1.2297,5.25378 -2.0705,0.63413 -4.1285,1.34773 -6.2067,1.93275 -9.3196,0.0712 -18.6392,0.1395 -27.9588,0.2126 -1.805,1.22959 -3.6093,2.4604 -5.4153,3.68859 -0.11,3.90064 -0.6805,7.8308 -0.048,11.71433 0.1935,1.34977 0.7186,2.83244 2.0483,3.43606 1.1669,0.77342 2.3339,1.54688 3.501,2.32027 9.7265,-0.25692 19.453,-0.51073 29.1795,-0.76645 1.7939,0.56275 3.5877,1.1255 5.3815,1.68825 0.8828,1.2787 1.7656,2.55741 2.6483,3.8361 0.043,6.0748 0.1616,12.15148 0.1579,18.22511 -0.1378,1.62317 -0.2147,3.29703 -0.7881,4.83566 -1.2442,1.14158 -2.8779,2.08121 -4.6209,1.90704 -16.3829,0.18822 -32.7659,0.37644 -49.1488,0.56466 -1.3495,-0.99209 -2.6991,-1.98417 -4.0486,-2.97626 -0.011,-6.11451 -0.025,-12.22895 -0.2157,-18.34104 -0.04,-1.76161 -0.081,-3.52322 -0.1229,-5.28479 -7.2522,-0.0775 -14.5045,-0.15569 -21.7567,-0.23294 -0.081,5.03975 -0.2711,10.07937 -0.2814,15.1192 0.097,4.06498 0.1268,8.13915 0.2664,12.19843 1.014,3.77876 2.028,7.55755 3.0425,11.33622 2.4317,2.75304 4.8636,5.50595 7.2967,8.25781 3.4823,1.34806 6.9664,2.69152 10.4498,4.03654 19.9314,-0.18107 39.8627,-0.36418 59.7941,-0.54479 2.823,-1.23877 5.702,-2.3757 8.4925,-3.67246 3.1562,-2.20101 6.3132,-4.40079 9.469,-6.60257 1.822,-4.02273 3.6416,-8.04665 5.4595,-12.07129 -0.2018,-11.22907 -0.3784,-22.45856 -0.5548,-33.68805 -1.7311,-1.89335 -3.3845,-3.87321 -5.166,-5.71101 -1.1835,-0.8566 -2.367,-1.71329 -3.5505,-2.56993 1.0897,-1.04664 2.2541,-2.0376 3.2978,-3.11841 1.456,-2.8704 2.9133,-5.7402 4.3705,-8.61003 -8e-4,-8.43859 0.04,-16.88016 0.01,-25.31689 -0.4191,-3.16845 -0.7613,-6.35827 -1.2278,-9.51357 -1.2377,-2.72237 -2.3937,-5.49975 -3.6817,-8.18819 -2.359,-2.36648 -4.6637,-4.81175 -7.0575,-7.12827 -4.1418,-1.87598 -8.2845,-3.74983 -12.4262,-5.62622 -0.1458,0.001 -0.2916,0.002 -0.4375,0.003 z" />
    <rect
       style="fill:#000000;stroke-dasharray:1;stroke-dashoffset:0.5"
       id="rect1-8"
       width="14.624988"
       height="25.35001"
       x="-813.21899"
       y="-1263.7936"
       transform="rotate(-179.61807)" />
    <path
       style="fill:#000000;stroke-dasharray:1;stroke-dashoffset:0.5"
       d="m 746.10322,1267.5764 -5.48021,-0.6459 3.09716,-25.8174 5.35832,0.6451 z"
       id="path1-4"
       sodipodi:nodetypes="ccccc" />
    <path
       style="fill:#000000;stroke-dasharray:1;stroke-dashoffset:0.5"
       d="m 691.85259,1260.6944 -5.22995,-1.6193 5.64674,-24.3379 4.74571,1.1285 z"
       id="path2-5"
       sodipodi:nodetypes="ccccc" />
    <path
       style="fill:#000000;stroke-dasharray:1;stroke-dashoffset:0.5"
       d="m 639.42049,1246.2714 -4.58066,-2.6122 7.67733,-23.0159 5.45138,1.0853 z"
       id="path3-0" />
    <path
       style="fill:#000000;stroke-dasharray:1;stroke-dashoffset:0.5"
       d="m 599.96775,1204.2009 -11.35523,21.3748 -4.24926,-2.4659 11.23334,-21.3756 z"
       id="path5-3"
       sodipodi:nodetypes="ccccc" />
    <path
       style="fill:#000000;stroke-dasharray:1;stroke-dashoffset:0.5"
       d="m 555.98565,1183.5542 -10.68251,-6.4089 -14.15015,20.1374 11.53397,6.6583 z"
       id="path6-6"
       sodipodi:nodetypes="ccccc" />
    <path
       style="fill:#000000;stroke-dasharray:1;stroke-dashoffset:0.5"
       d="m 505.07267,1151.3438 -15.36729,19.8855 4.36871,2.8324 15.36892,-20.1293 z"
       id="path8-1"
       sodipodi:nodetypes="ccccc" />
    <path
       style="fill:#000000;stroke-dasharray:1;stroke-dashoffset:0.5"
       d="m 469.44004,1121.429 -3.88042,-2.9509 -16.93866,17.9249 4.11771,3.9276 z"
       id="path9-0"
       sodipodi:nodetypes="ccccc" />
    <path
       style="fill:#000000;stroke-dasharray:1;stroke-dashoffset:0.5"
       d="m 432.62199,1086.5094 -3.38643,-3.9227 -18.63507,16.4512 3.38968,3.4351 z"
       id="path11-6" />
    <path
       style="fill:#000000;stroke-dasharray:1;stroke-dashoffset:0.5"
       d="m 399.11884,1047.9555 -2.77622,-4.0405 -19.9594,14.0048 3.02327,3.5546 z"
       id="path12-3"
       sodipodi:nodetypes="ccccc" />
    <path
       style="fill:#000000;stroke-dasharray:1;stroke-dashoffset:0.5"
       d="m 375.25219,1008.1861 -7.23434,-11.74842 -23.73022,12.88262 7.72194,11.7518 z"
       id="path13-2"
       sodipodi:nodetypes="ccccc" />
    <path
       style="fill:#000000;stroke-dasharray:1;stroke-dashoffset:0.5"
       d="m 348.28024,958.88964 -2.16369,-4.52389 -22.49925,11.06277 2.40739,4.52553 z"
       id="path14-0"
       sodipodi:nodetypes="ccccc" />
    <path
       style="fill:#000000;stroke-dasharray:1;stroke-dashoffset:0.5"
       d="m 328.29671,912.50384 -1.67367,-4.88626 -22.47649,7.65034 2.40332,5.13489 z"
       id="path15-6"
       sodipodi:nodetypes="ccccc" />
    <path
       style="fill:#000000;stroke-dasharray:1;stroke-dashoffset:0.5"
       d="m 315.52088,863.60666 -0.81906,-5.12433 -23.67974,5.32664 1.18862,4.51741 z"
       id="path16-1"
       sodipodi:nodetypes="ccccc" />
    <path
       style="fill:#000000;stroke-dasharray:1;stroke-dashoffset:0.5"
       d="m 308.05452,813.52609 -0.45418,-5.00002 -25.36893,2.75596 1.30563,5.24944 z"
       id="path17-5"
       sodipodi:nodetypes="ccccc" />
    <path
       style="fill:#000000;stroke-dasharray:1;stroke-dashoffset:0.5"
       d="m 305.25143,767.80326 0.20921,-13.10045 -25.47375,0.19581 0.39975,13.16546 z"
       id="path18"
       sodipodi:nodetypes="ccccc" />
    <path
       style="fill:#000000;stroke-dasharray:1;stroke-dashoffset:0.5"
       d="m 849.90463,1267.1561 5.48832,-0.5729 -2.75271,-25.8564 -5.36645,0.5736 z"
       id="path1-0"
       sodipodi:nodetypes="ccccc" />
    <path
       style="fill:#000000;stroke-dasharray:1;stroke-dashoffset:0.5"
       d="m 903.45613,1260.0786 5.25107,-1.5495 -5.32177,-24.411 -4.76034,1.0652 z"
       id="path2-2"
       sodipodi:nodetypes="ccccc" />
    <path
       style="fill:#000000;stroke-dasharray:1;stroke-dashoffset:0.5"
       d="m 957.06124,1244.9574 4.4069,-2.8957 -9.11282,-22.4863 -5.37213,1.4267 z"
       id="path3-3" />
    <path
       style="fill:#000000;stroke-dasharray:1;stroke-dashoffset:0.5"
       d="m 996.70546,1203.2957 11.06924,21.5243 4.2818,-2.409 -10.9474,-21.5235 z"
       id="path5-7"
       sodipodi:nodetypes="ccccc" />
    <path
       style="fill:#000000;stroke-dasharray:1;stroke-dashoffset:0.5"
       d="m 1039.2876,1181.5768 10.767,-6.2659 13.8804,20.3243 -11.6217,6.5038 z"
       id="path6-5"
       sodipodi:nodetypes="ccccc" />
    <path
       style="fill:#000000;stroke-dasharray:1;stroke-dashoffset:0.5"
       d="m 1090.8332,1149.4504 15.1008,20.0886 -4.4061,2.7737 -15.0992,-20.3323 z"
       id="path8-9"
       sodipodi:nodetypes="ccccc" />
    <path
       style="fill:#000000;stroke-dasharray:1;stroke-dashoffset:0.5"
       d="m 1127.6188,1120.5373 3.9194,-2.8989 16.6982,18.1492 -4.1697,3.8723 z"
       id="path9-2"
       sodipodi:nodetypes="ccccc" />
    <path
       style="fill:#000000;stroke-dasharray:1;stroke-dashoffset:0.5"
       d="m 1164.4191,1084.9923 3.4384,-3.8771 18.4141,16.6981 -3.4352,3.3897 z"
       id="path11-2" />
    <path
       style="fill:#000000;stroke-dasharray:1;stroke-dashoffset:0.5"
       d="m 1196.895,1044.9214 2.8299,-4.0031 19.7709,14.2696 -3.0704,3.514 z"
       id="path12-8"
       sodipodi:nodetypes="ccccc" />
    <path
       style="fill:#000000;stroke-dasharray:1;stroke-dashoffset:0.5"
       d="m 1221.2113,1005.2418 7.3903,-11.65102 23.5563,13.19802 -7.8779,11.6477 z"
       id="path13-9"
       sodipodi:nodetypes="ccccc" />
    <path
       style="fill:#000000;stroke-dasharray:1;stroke-dashoffset:0.5"
       d="m 1248.5681,955.79034 2.2238,-4.49465 22.3498,11.36174 -2.4675,4.49303 z"
       id="path14-7"
       sodipodi:nodetypes="ccccc" />
    <path
       style="fill:#000000;stroke-dasharray:1;stroke-dashoffset:0.5"
       d="m 1267.292,908.30279 1.7386,-4.86351 22.3725,7.94931 -2.4715,5.10238 z"
       id="path15-3"
       sodipodi:nodetypes="ccccc" />
    <path
       style="fill:#000000;stroke-dasharray:1;stroke-dashoffset:0.5"
       d="m 1280.5563,859.61056 0.8873,-5.113 23.6067,5.64191 -1.2488,4.50115 z"
       id="path16-61"
       sodipodi:nodetypes="ccccc" />
    <path
       style="fill:#000000;stroke-dasharray:1;stroke-dashoffset:0.5"
       d="m 1287.5796,809.01901 0.5208,-4.99354 25.33,3.09392 -1.3755,5.23155 z"
       id="path17-29"
       sodipodi:nodetypes="ccccc" />
    <path
       style="fill:#000000;stroke-dasharray:1;stroke-dashoffset:0.5"
       d="m 1289.749,762.79997 -0.5969,-13.88579 26.8964,0.8096 -0.7475,13.15781 z"
       id="path18-3"
       sodipodi:nodetypes="ccccc" />
    <rect
       style="fill:#000000;stroke-dasharray:1;stroke-dashoffset:0.5"
       id="rect1"
       width="14.624988"
       height="25.35001"
       x="791.86591"
       y="243.28893"
       transform="rotate(0.38193048)" />
    <path
       style="fill:#000000;stroke-dasharray:1;stroke-dashoffset:0.5"
       d="m 848.71224,250.90193 5.48019,0.64592 -3.09717,25.81742 -5.35832,-0.6451 z"
       id="path1"
       sodipodi:nodetypes="ccccc" />
    <path
       style="fill:#000000;stroke-dasharray:1;stroke-dashoffset:0.5"
       d="m 902.77154,259.06247 5.22995,1.61927 -5.64674,24.33789 -4.74571,-1.12853 z"
       id="path2"
       sodipodi:nodetypes="ccccc" />
    <path
       style="fill:#000000;stroke-dasharray:1;stroke-dashoffset:0.5"
       d="m 955.82012,272.57888 4.36791,2.95418 -9.41178,22.36276 -5.35263,-1.49821 z"
       id="path3" />
    <path
       style="fill:#000000;stroke-dasharray:1;stroke-dashoffset:0.5"
       d="M 1009.7982,292.92665 Z"
       id="path4" />
    <path
       style="fill:#000000;stroke-dasharray:1;stroke-dashoffset:0.5"
       d="m 995.03378,313.79119 11.35522,-21.37478 4.2493,2.46588 -11.23337,21.37559 z"
       id="path5"
       sodipodi:nodetypes="ccccc" />
    <path
       style="fill:#000000;stroke-dasharray:1;stroke-dashoffset:0.5"
       d="m 1037.3088,334.54845 10.6826,6.40885 14.1501,-20.13737 -11.534,-6.65828 z"
       id="path6"
       sodipodi:nodetypes="ccccc" />
    <path
       style="fill:#000000;stroke-dasharray:1;stroke-dashoffset:0.5"
       d="m 1012.3332,351.44484 32.0638,16.78911 c 0,0 -47.42293,93.28596 -51.31309,91.79749 -3.89016,-1.48846 -24.39721,3.24995 -24.39721,3.24995 l -7.64709,-22.96399 z"
       id="path7"
       sodipodi:nodetypes="ccsccc" />
    <path
       style="display:inline;fill:#000000;stroke-dasharray:1;stroke-dashoffset:0.5"
       d="m 1088.7674,367.18908 15.3673,-19.88551 -4.3687,-2.83231 -15.3689,20.12925 z"
       id="path8"
       sodipodi:nodetypes="ccccc" />
    <path
       style="fill:#000000;stroke-dasharray:1;stroke-dashoffset:0.5"
       d="m 1124.6507,396.06953 3.8804,2.95093 16.9387,-17.92498 -4.1177,-3.92754 z"
       id="path9"
       sodipodi:nodetypes="ccccc" />
    <path
       style="fill:#000000;stroke-dasharray:1;stroke-dashoffset:0.5"
       d="m 1188.2161,513.98337 17.8356,30.34457 c 0,0 -82.7236,50.14968 -86.6105,48.17373 -3.8869,-1.97595 -21.4073,-6.48034 -21.4073,-6.48034 l 5.0211,-21.90452 z"
       id="path10" />
    <path
       style="fill:#000000;stroke-dasharray:1;stroke-dashoffset:0.5"
       d="m 1160.9784,431.41247 3.3864,3.92267 18.6351,-16.45115 -3.3897,-3.43517 z"
       id="path11" />
    <path
       style="fill:#000000;stroke-dasharray:1;stroke-dashoffset:0.5"
       d="m 1194.4812,470.02729 2.7762,4.04046 19.9594,-14.00476 -3.0233,-3.5546 z"
       id="path12"
       sodipodi:nodetypes="ccccc" />
    <path
       style="fill:#000000;stroke-dasharray:1;stroke-dashoffset:0.5"
       d="m 1218.9637,508.82572 7.2343,11.74848 23.7302,-12.88272 -7.7219,-11.75175 z"
       id="path13"
       sodipodi:nodetypes="ccccc" />
    <path
       style="fill:#000000;stroke-dasharray:1;stroke-dashoffset:0.5"
       d="m 1246.1794,558.12386 2.1637,4.52389 22.4992,-11.06276 -2.4074,-4.52553 z"
       id="path14"
       sodipodi:nodetypes="ccccc" />
    <path
       style="fill:#000000;stroke-dasharray:1;stroke-dashoffset:0.5"
       d="m 1266.3412,605.18117 1.6737,4.88627 22.4765,-7.65035 -2.4033,-5.13488 z"
       id="path15"
       sodipodi:nodetypes="ccccc" />
    <path
       style="fill:#000000;stroke-dasharray:1;stroke-dashoffset:0.5"
       d="m 1279.3035,653.53115 0.8191,5.12433 23.6797,-5.32665 -1.1886,-4.5174 z"
       id="path16"
       sodipodi:nodetypes="ccccc" />
    <path
       style="fill:#000000;stroke-dasharray:1;stroke-dashoffset:0.5"
       d="m 1287.3821,703.18923 0.4542,5.00001 25.3689,-2.75595 -1.3056,-5.24944 z"
       id="path17"
       sodipodi:nodetypes="ccccc" />
    <path
       style="fill:#000000;stroke-dasharray:1;stroke-dashoffset:0.5"
       d="m 746.79854,250.88767 -5.48834,0.5728 2.7527,25.85643 5.36645,-0.57361 z"
       id="path1-5"
       sodipodi:nodetypes="ccccc" />
    <path
       style="fill:#000000;stroke-dasharray:1;stroke-dashoffset:0.5"
       d="m 692.62146,260.39504 -5.25104,1.54941 5.32179,24.411 4.76031,-1.06516 z"
       id="path2-6"
       sodipodi:nodetypes="ccccc" />
    <path
       style="fill:#000000;stroke-dasharray:1;stroke-dashoffset:0.5"
       d="m 639.0481,273.89015 -4.4069,2.89569 9.11281,22.48624 5.37213,-1.42672 z"
       id="path3-2" />
    <path
       style="fill:#000000;stroke-dasharray:1;stroke-dashoffset:0.5"
       d="m 600.66274,315.27463 -11.06927,-21.52427 -4.28176,2.40902 10.94737,21.52345 z"
       id="path5-9"
       sodipodi:nodetypes="ccccc" />
    <path
       style="fill:#000000;stroke-dasharray:1;stroke-dashoffset:0.5"
       d="m 557.58844,336.84183 -10.767,6.26587 -13.88043,-20.32423 11.62171,-6.50393 z"
       id="path6-1"
       sodipodi:nodetypes="ccccc" />
    <path
       style="fill:#000000;stroke-dasharray:1;stroke-dashoffset:0.5"
       d="m 506.20832,370.00345 -15.10083,-20.08861 4.40609,-2.77382 15.0992,20.33235 z"
       id="path8-2"
       sodipodi:nodetypes="ccccc" />
    <path
       style="fill:#000000;stroke-dasharray:1;stroke-dashoffset:0.5"
       d="m 470.62573,399.44169 -3.91941,2.89893 -16.69819,-18.14921 4.1697,-3.87229 z"
       id="path9-7"
       sodipodi:nodetypes="ccccc" />
    <path
       style="fill:#000000;stroke-dasharray:1;stroke-dashoffset:0.5"
       d="m 434.51603,434.81884 -3.43842,3.87716 -18.4141,-16.69811 3.43517,-3.38968 z"
       id="path11-0" />
    <path
       style="fill:#000000;stroke-dasharray:1;stroke-dashoffset:0.5"
       d="m 401.52986,473.85224 -2.82985,4.0031 -19.77092,-14.26961 3.07039,-3.51398 z"
       id="path12-9"
       sodipodi:nodetypes="ccccc" />
    <path
       style="fill:#000000;stroke-dasharray:1;stroke-dashoffset:0.5"
       d="m 377.21364,513.53191 -7.39033,11.65099 -23.55635,-13.19794 7.87792,-11.64775 z"
       id="path13-3"
       sodipodi:nodetypes="ccccc" />
    <path
       style="fill:#000000;stroke-dasharray:1;stroke-dashoffset:0.5"
       d="m 349.1731,562.11698 -2.22381,4.49465 -22.34976,-11.36174 2.46751,-4.49303 z"
       id="path14-6"
       sodipodi:nodetypes="ccccc" />
    <path
       style="fill:#000000;stroke-dasharray:1;stroke-dashoffset:0.5"
       d="m 329.5933,608.73702 -1.73866,4.86352 -22.3725,-7.94931 2.47156,-5.10239 z"
       id="path15-0"
       sodipodi:nodetypes="ccccc" />
    <path
       style="fill:#000000;stroke-dasharray:1;stroke-dashoffset:0.5"
       d="m 316.6724,657.60389 -0.8873,5.11295 -23.60661,-5.64185 1.24873,-4.50116 z"
       id="path16-6"
       sodipodi:nodetypes="ccccc" />
    <path
       style="fill:#000000;stroke-dasharray:1;stroke-dashoffset:0.5"
       d="m 308.96321,707.67382 -0.5208,4.99352 -25.32993,-3.09392 1.3755,-5.23157 z"
       id="path17-2"
       sodipodi:nodetypes="ccccc" />
    <path
       style="fill:#000000;stroke-dasharray:1;stroke-dashoffset:0.5"
       d="m 552.94451,374.46437 27.16289,-15.90679 53.05512,85.66806 -7.45369,21.15704 -22.639,-4.53851 z"
       id="path19" />
    <path
       style="fill:#000000;stroke-dasharray:1;stroke-dashoffset:0.5"
       d="m 493.8837,568.09998 -87.18097,-49.08848 -16.027,27.43752 87.41821,50.06509 20.76541,-6.93049 z"
       id="path20" />
    <path
       style="fill:#000000;stroke-dasharray:1;stroke-dashoffset:0.5"
       d="m 389.77739,973.74628 17.84374,29.12592 85.15783,-49.64603 5.50049,-20.68254 -21.39428,-8.4303 z"
       id="path21" />
    <path
       style="fill:#000000;stroke-dasharray:1;stroke-dashoffset:0.5"
       d="m 552.92224,1145.7063 27.91039,18.2241 c 0,0 53.47264,-86.6643 52.50091,-87.1583 -0.97173,-0.494 -8.38645,-21.7501 -8.38645,-21.7501 l -23.45635,8.375 z"
       id="path22"
       sodipodi:nodetypes="ccsccc" />
    <path
       style="fill:#000000;stroke-dasharray:1;stroke-dashoffset:0.5"
       d="m 1017.4117,1161.9655 27.6536,-16.391 -52.31251,-87.3695 -20.92954,-5.0146 -6.47059,19.9448 z"
       id="path23" />
    <path
       style="fill:#000000;stroke-dasharray:1;stroke-dashoffset:0.5"
       d="m 1117.4947,921.071 89.126,49.83271 -15.5362,26.95328 -87.1875,-48.1135 -5.7036,-21.97601 z"
       id="path24" />
    <path
       style="fill:#000000;stroke-dasharray:1;stroke-dashoffset:0.5"
       d="m 693.56193,345.38822 38.16822,-37.32028 24.13408,-0.52857 -1.14206,119.611 -23.44696,0.87786 0.95133,-91.00032 -23.2562,23.97553 z"
       id="path25"
       sodipodi:nodetypes="cccccccc" />
    <path
       style="fill:#000000;stroke-dasharray:1;stroke-dashoffset:0.5"
       d="m 779.35028,352.50982 -0.15628,-28.26826 7.31927,-12.01649 8.84716,-5.7807 21.87771,-0.90893 35.50481,0.23668 9.97811,2.82428 9.24506,9.36914 2.98976,16.91131 -0.47703,27.02846 -5.07027,10.88711 -10.71228,8.68343 -26.48175,4.47969 -21.97555,3.19858 -5.17554,4.46219 -0.5289,7.66722 70.32711,-0.56536 -0.52165,26.54013 -94.45889,0.74922 0.82332,-28.47017 3.4598,-18.6641 7.79189,-8.88536 11.83358,-4.89975 38.23973,-5.54245 7.5589,-7.07693 -0.19137,-12.17839 -1.11837,-11.14767 -9.65916,-4.9866 -13.19293,-0.14873 -17.48709,0.51963 -6.31549,8.35443 0.0113,17.34587 z"
       id="path26"
       sodipodi:nodetypes="ccccccccccccccccccccccccccccccccc" />
    <path
       id="path27"
       style="display:inline;fill:#000000;stroke-dasharray:1;stroke-dashoffset:0.5"
       d="m 825.03498,1096.1241 -54.62812,0.1039 -11.62059,4.4876 -7.13544,14.43 0.63051,83.8566 6.90252,11.0678 11.21473,3.9294 55.76812,-0.3108 13.77907,-3.7099 4.85347,-11.0481 0.4355,-44.9622 -7.16775,-9.3223 -10.20407,-3.4048 -50.32218,-0.019 -4.84904,3.415 -0.21472,-19.6503 5.62899,-5.1841 28.19022,-0.1062 14.98688,0.4265 5.40745,0.011 -0.12806,7.6149 18.83083,0.4859 0.50543,-6.0207 -0.4652,-16.2272 -8.75919,-7.5622 z m -46.62653,69.9244 41.36432,0.2758 4.68701,5.1578 -0.45369,18.1486 -6.04207,3.8743 -39.62338,0.4786 -5.04482,-4.2986 -0.10543,-18.8703 c 0,0 3.48764,-3.7436 5.21806,-4.7662 z"
       sodipodi:nodetypes="ccccccccccccccccccccccccccccccccccc" />
    <path
       id="path27-3"
       style="display:inline;fill:#000000;stroke-dasharray:1;stroke-dashoffset:0.5"
       d="m 354.79548,817.89227 54.62812,-0.1039 11.62059,-4.4876 7.13544,-14.43 -0.63051,-83.8566 -6.90252,-11.0678 -11.21473,-3.9294 -55.76812,0.3108 -13.77907,3.7099 -4.85347,11.0481 -0.4355,44.9622 7.16775,9.3223 10.20407,3.4048 50.32218,0.019 4.84904,-3.415 0.21472,19.6503 -5.62899,5.1841 -28.19022,0.1062 -14.98688,-0.4265 -5.40745,-0.011 0.12806,-7.6149 -18.83083,-0.4859 -0.50543,6.0207 0.4652,16.2272 8.75919,7.5622 z m 46.62653,-69.9244 -41.36432,-0.2758 -4.68701,-5.1578 0.45369,-18.1486 6.04207,-3.8743 39.62338,-0.4786 5.04482,4.2986 0.10543,18.8703 c 0,0 -3.48764,3.7436 -5.21806,4.7662 z"
       sodipodi:nodetypes="ccccccccccccccccccccccccccccccccccc" />
  </g>
</svg>
