<?xml version="1.0" encoding="UTF-8" standalone="no"?>
<!-- Created with Inkscape (http://www.inkscape.org/) -->

<svg
   version="1.1"
   id="svg1"
   width="126.36518"
   height="127.33038"
   viewBox="0 0 126.36518 127.33038"
   sodipodi:docname="clock-face-5-symbolic.svg"
   inkscape:version="1.4 (e7c3feb100, 2024-10-09)"
   xmlns:inkscape="http://www.inkscape.org/namespaces/inkscape"
   xmlns:sodipodi="http://sodipodi.sourceforge.net/DTD/sodipodi-0.dtd"
   xmlns="http://www.w3.org/2000/svg"
   xmlns:svg="http://www.w3.org/2000/svg">
  <defs
     id="defs1" />
  <sodipodi:namedview
     id="namedview1"
     pagecolor="#505050"
     bordercolor="#ffffff"
     borderopacity="1"
     inkscape:showpageshadow="0"
     inkscape:pageopacity="0"
     inkscape:pagecheckerboard="1"
     inkscape:deskcolor="#505050"
     inkscape:zoom="4.7140453"
     inkscape:cx="104.26289"
     inkscape:cy="39.244426"
     inkscape:window-width="1920"
     inkscape:window-height="1011"
     inkscape:window-x="0"
     inkscape:window-y="0"
     inkscape:window-maximized="1"
     inkscape:current-layer="g1"
     showguides="true">
    <sodipodi:guide
       position="63.583447,115.62716"
       orientation="1,0"
       id="guide1"
       inkscape:locked="false" />
    <sodipodi:guide
       position="58.631541,97.51356"
       orientation="0,-1"
       id="guide2"
       inkscape:locked="false" />
    <sodipodi:guide
       position="59.995454,115.72822"
       orientation="0,-1"
       id="guide3"
       inkscape:locked="false" />
  </sodipodi:namedview>
  <g
     inkscape:groupmode="layer"
     inkscape:label="Image"
     id="g1"
     style="display:inline"
     transform="translate(-45.0375,-55.313425)">
    <ellipse
       style="display:inline;fill:#000000;stroke-width:1.0171"
       id="path31-3-54"
       cx="158.98474"
       cy="135.92444"
       rx="1.2197592"
       ry="1.1932427" />
    <ellipse
       style="display:inline;fill:#000000;stroke-width:1.0171"
       id="path31-3-0"
       cx="157"
       cy="141.02287"
       rx="1.2197592"
       ry="1.1932427" />
    <ellipse
       style="display:inline;fill:#000000;stroke-width:1.0171"
       id="path31-3-8"
       cx="151.31056"
       cy="150.69705"
       rx="1.2197592"
       ry="1.1932427" />
    <ellipse
       style="display:inline;fill:#000000;stroke-width:1.0171"
       id="path31-3-92"
       cx="147.76534"
       cy="155.06429"
       rx="1.2197592"
       ry="1.1932427" />
    <ellipse
       style="display:inline;fill:#000000;stroke-width:1.0171"
       id="path31-3-26"
       cx="143.71194"
       cy="159.06465"
       rx="1.2197592"
       ry="1.1932427" />
    <ellipse
       style="display:inline;fill:#000000;stroke-width:1.0171"
       id="path31-3-04"
       cx="139.40138"
       cy="162.48128"
       rx="1.2197592"
       ry="1.1932427" />
    <ellipse
       style="display:inline;fill:#000000;stroke-width:1.0171"
       id="path31-3-27"
       cx="129.70033"
       cy="168.13258"
       rx="1.2197592"
       ry="1.1932427" />
    <ellipse
       style="display:inline;fill:#000000;stroke-width:1.0171"
       id="path31-3-06"
       cx="124.2085"
       cy="170.05302"
       rx="1.2197592"
       ry="1.1932427" />
    <ellipse
       style="display:inline;fill:#000000;stroke-width:1.0171"
       id="path31-3-90"
       cx="118.81039"
       cy="171.49254"
       rx="1.2197592"
       ry="1.1932427" />
    <ellipse
       style="display:inline;fill:#000000;stroke-width:1.0171"
       id="path31-3-11"
       cx="113.36723"
       cy="172.43188"
       rx="1.2197592"
       ry="1.1932427" />
    <ellipse
       style="display:inline;fill:#000000;stroke-width:1.0171"
       id="path31-3-67"
       cx="102.2343"
       cy="172.2993"
       rx="1.2197592"
       ry="1.1932427" />
    <ellipse
       style="display:inline;fill:#000000;stroke-width:1.0171"
       id="path31-3-39"
       cx="96.677811"
       cy="171.37123"
       rx="1.2197592"
       ry="1.1932427" />
    <ellipse
       style="display:inline;fill:#000000;stroke-width:1.0171"
       id="path31-3-939"
       cx="91.287689"
       cy="169.86742"
       rx="1.2197592"
       ry="1.1932427" />
    <ellipse
       style="display:inline;fill:#000000;stroke-width:1.0171"
       id="path31-3-09"
       cx="86.022522"
       cy="167.85979"
       rx="1.2197592"
       ry="1.1932427" />
    <ellipse
       style="display:inline;fill:#000000;stroke-width:1.0171"
       id="path31-3-61"
       cx="76.24955"
       cy="162.18163"
       rx="1.2197592"
       ry="1.1932427" />
    <ellipse
       style="display:inline;fill:#000000;stroke-width:1.0171"
       id="path31-3-48"
       cx="71.871048"
       cy="158.56047"
       rx="1.2197592"
       ry="1.1932427" />
    <ellipse
       style="display:inline;fill:#000000;stroke-width:1.0171"
       id="path31-3-44"
       cx="68.003632"
       cy="154.77261"
       rx="1.2197592"
       ry="1.1932427" />
    <ellipse
       style="display:inline;fill:#000000;stroke-width:1.0171"
       id="path31-3-31"
       cx="64.530327"
       cy="150.17798"
       rx="1.2197592"
       ry="1.1932427" />
    <ellipse
       style="display:inline;fill:#000000;stroke-width:1.0171"
       id="path31-3-21"
       cx="59.022522"
       cy="140.64729"
       rx="1.2197592"
       ry="1.1932427" />
    <ellipse
       style="display:inline;fill:#000000;stroke-width:1.0171"
       id="path31-3-41"
       cx="57.045403"
       cy="135.49982"
       rx="1.2197592"
       ry="1.1932427" />
    <ellipse
       style="display:inline;fill:#000000;stroke-width:1.0171"
       id="path31-3-53"
       cx="55.689426"
       cy="129.80276"
       rx="1.2197592"
       ry="1.1932427" />
    <ellipse
       style="display:inline;fill:#000000;stroke-width:1.0171"
       id="path31-3-89"
       cx="54.912823"
       cy="124.38612"
       rx="1.2197592"
       ry="1.1932427" />
    <ellipse
       style="display:inline;fill:#000000;stroke-width:1.0171"
       id="path31-3-38"
       cx="55.087173"
       cy="113.22303"
       rx="1.2197592"
       ry="1.1932427" />
    <ellipse
       style="display:inline;fill:#000000;stroke-width:1.0171"
       id="path31-3-88"
       cx="55.80312"
       cy="107.70432"
       rx="1.2197592"
       ry="1.1932427" />
    <ellipse
       style="display:inline;fill:#000000;stroke-width:1.0171"
       id="path31-3-43"
       cx="57.318195"
       cy="102.21976"
       rx="1.2197592"
       ry="1.1932427" />
    <ellipse
       style="display:inline;fill:#000000;stroke-width:1.0171"
       id="path31-3-25"
       cx="59.31456"
       cy="97.067924"
       rx="1.2197592"
       ry="1.1932427" />
    <ellipse
       style="display:inline;fill:#000000;stroke-width:1.0171"
       id="path31-3-46"
       cx="65.132935"
       cy="87.567757"
       rx="1.2197592"
       ry="1.1932427" />
    <ellipse
       style="display:inline;fill:#000000;stroke-width:1.0171"
       id="path31-3-77"
       cx="68.587357"
       cy="83.075562"
       rx="1.2197592"
       ry="1.1932427" />
    <ellipse
       style="display:inline;fill:#000000;stroke-width:1.0171"
       id="path31-3-28"
       cx="72.401741"
       cy="79.189255"
       rx="1.2197592"
       ry="1.1932427" />
    <ellipse
       style="display:inline;fill:#000000;stroke-width:1.0171"
       id="path31-3-02"
       cx="76.913177"
       cy="75.541595"
       rx="1.2197592"
       ry="1.1932427" />
    <ellipse
       style="display:inline;fill:#000000;stroke-width:1.0171"
       id="path31-3-10"
       cx="86.575737"
       cy="70"
       rx="1.2197592"
       ry="1.1932427" />
    <ellipse
       style="display:inline;fill:#000000;stroke-width:1.0171"
       id="path31-3-462"
       cx="92.053391"
       cy="68.04541"
       rx="1.2197592"
       ry="1.1932427" />
    <ellipse
       style="display:inline;fill:#000000;stroke-width:1.0171"
       id="path31-3-84"
       cx="97.390472"
       cy="66.469673"
       rx="1.2197592"
       ry="1.1932427" />
    <ellipse
       style="display:inline;fill:#000000;stroke-width:1.0171"
       id="path31-3-62"
       cx="102.86015"
       cy="65.68943"
       rx="1.2197592"
       ry="1.1932427" />
    <ellipse
       style="fill:#000000;stroke-width:1.02833"
       id="path31"
       cx="114.33916"
       cy="65.668129"
       rx="1.2197592"
       ry="1.2197591" />
    <ellipse
       style="display:inline;fill:#000000;stroke-width:1.0171"
       id="path31-3"
       cx="119.51543"
       cy="66.64402"
       rx="1.2197592"
       ry="1.1932427" />
    <ellipse
       style="display:inline;fill:#000000;stroke-width:1.0171"
       id="path31-3-1"
       cx="125.00036"
       cy="68.121323"
       rx="1.2197592"
       ry="1.1932427" />
    <ellipse
       style="display:inline;fill:#000000;stroke-width:1.0171"
       id="path31-3-3"
       cx="130.24628"
       cy="70.215767"
       rx="1.2197592"
       ry="1.1932427" />
    <ellipse
       style="display:inline;fill:#000000;stroke-width:1.0171"
       id="path31-3-6"
       cx="139.87177"
       cy="75.788231"
       rx="1.2197592"
       ry="1.1932427" />
    <ellipse
       style="display:inline;fill:#000000;stroke-width:1.0171"
       id="path31-3-2"
       cx="144.38249"
       cy="79.431892"
       rx="1.2197592"
       ry="1.1932427" />
    <ellipse
       style="display:inline;fill:#000000;stroke-width:1.0171"
       id="path31-3-5"
       cx="148.26152"
       cy="83.428261"
       rx="1.2197592"
       ry="1.1932427" />
    <ellipse
       style="display:inline;fill:#000000;stroke-width:1.0171"
       id="path31-3-9"
       cx="151.69342"
       cy="87.594986"
       rx="1.2197592"
       ry="1.1932427" />
    <ellipse
       style="display:inline;fill:#000000;stroke-width:1.0171"
       id="path31-3-29"
       cx="157.2688"
       cy="97.632401"
       rx="1.2197592"
       ry="1.1932427" />
    <ellipse
       style="display:inline;fill:#000000;stroke-width:1.0171"
       id="path31-3-7"
       cx="159.2085"
       cy="102.6215"
       rx="1.2197592"
       ry="1.1932427" />
    <ellipse
       style="display:inline;fill:#000000;stroke-width:1.0171"
       id="path31-3-36"
       cx="160.53033"
       cy="108.06065"
       rx="1.2197592"
       ry="1.1932427" />
    <ellipse
       style="display:inline;fill:#000000;stroke-width:1.0171"
       id="path31-3-20"
       cx="161.43951"
       cy="113.65564"
       rx="1.2197592"
       ry="1.1932427" />
    <ellipse
       style="display:inline;fill:#000000;stroke-width:1.0171"
       id="path31-3-4"
       cx="161.4584"
       cy="124.652"
       rx="1.2197592"
       ry="1.1932427" />
    <ellipse
       style="display:inline;fill:#000000;stroke-width:1.0171"
       id="path31-3-93"
       cx="160.59462"
       cy="130.21213"
       rx="1.2197592"
       ry="1.1932427" />
    <path
       style="fill:#000000"
       d="m 60.112915,144.83315 1.352342,2.59861 1.697056,-1.14021 -1.431891,-2.49255 z"
       id="path32" />
    <path
       style="fill:#000000"
       d="m 60.37808,92.675183 c 0,0 1.537958,1.299308 1.644024,1.193242 0.106066,-0.106066 1.537957,-2.519068 1.537957,-2.519068 0,0 -1.644023,-1.06066 -1.750089,-0.98111 -0.106066,0.07955 -1.431892,2.306936 -1.431892,2.306936 z"
       id="path33" />
    <path
       style="fill:#000000"
       d="m 153.15933,91.773622 1.72357,-0.901562 1.37886,2.333453 c 0,0 -1.43189,1.007627 -1.56447,0.954594 -0.13259,-0.05303 -1.53796,-2.386485 -1.53796,-2.386485 z"
       id="path34" />
    <path
       style="fill:#000000"
       d="m 154.4056,147.67041 1.591,-2.43952 -1.82964,-0.87504 -1.45841,2.35997 z"
       id="path35" />
    <path
       style="fill:#000000"
       d="m 106.22512,171.5883 0.0795,2.04177 c 0,0 2.75771,0.18561 2.78423,-0.15912 0.0265,-0.34472 2e-5,-1.90919 2e-5,-1.90919 z"
       id="path36"
       sodipodi:nodetypes="ccscc" />
  </g>
  <g
     inkscape:groupmode="layer"
     id="layer1"
     inkscape:label="Paths"
     style="display:inline"
     transform="translate(-45.0375,-55.313425)">
    <path
       style="display:inline;fill:#000000"
       d="m 144.62101,96.307944 -8.43224,5.674536 1.80312,3.07591 c 0,0 9.44079,-4.18733 9.22774,-4.71994 -0.21213,-0.530332 -2.59862,-4.030506 -2.59862,-4.030506 z"
       id="path6"
       sodipodi:nodetypes="cccsc" />
    <path
       style="display:inline;fill:#000000"
       d="m 154.32606,88.087827 4.6669,-2.598617 -1.27279,-1.007627 1.16672,-0.636396 1.06066,0.477297 0.84853,0.212132 0.7955,-0.106066 0.58336,0.901561 -0.053,0.212132 -6.84126,3.818377 z"
       id="path7" />
    <path
       id="path8"
       style="display:inline;fill:#000000"
       d="m 163.02344,87.982422 -0.95508,0.105469 -1.96094,1.007812 -2.91797,1.802735 -0.26562,1.007812 0.26562,0.902344 0.74219,1.589844 0.95508,1.060546 c 0,0 0.73737,0.608378 1.00781,0.478516 0.32463,-0.155882 1.79102,-0.793359 1.79102,-0.793359 l 2.11054,-1.105079 1.5086,-1.019531 c 0,0 0.58293,-0.423989 0.42383,-0.742187 -0.1591,-0.318198 -0.58399,-1.431641 -0.58399,-1.431641 l -1.21875,-2.28125 z m -0.3711,1.378906 c 0,0 0.81172,1.155074 1.43164,2.386719 0.17244,0.342601 0.16016,0.582031 0.16016,0.582031 l -4.13672,2.121094 -0.63672,-0.158203 -1.2207,-2.439453 3.3418,-1.962891 z"
       sodipodi:nodetypes="ccccccccscccsccccscccccc" />
    <path
       style="display:inline;fill:#000000"
       d="m 140.9087,116.88476 0.053,5.40936 10.39447,0.1591 c 0,0 0.3575,-5.15692 -0.3182,-5.40937 -1.40408,-0.52457 -10.12931,-0.15909 -10.12931,-0.15909 z"
       id="path9"
       sodipodi:nodetypes="cccsc" />
    <path
       style="display:inline;fill:#000000"
       d="m 160.47788,118.05148 c -0.10606,0.21213 -0.053,2.33345 -0.053,2.33345 l 10.9248,0.21213 0.053,-2.49255 z"
       id="path10" />
    <path
       style="display:inline;fill:#000000"
       d="m 136.18877,137.88582 8.43224,5.4624 2.22739,-4.13657 -8.85651,-4.93207 z"
       id="path11" />
    <path
       style="display:inline;fill:#000000"
       d="m 123.35478,149.07579 3.34108,-1.96222 5.6215,8.48528 -4.13658,2.33345 z"
       id="path12" />
    <path
       style="display:inline;fill:#000000"
       d="m 106.17208,152.09867 -0.1591,10.02324 c 0,0 5.67454,0.21213 5.4624,0 -0.21213,-0.21213 -0.31819,-10.18234 -0.31819,-10.18234 z"
       id="path13" />
    <path
       style="display:inline;fill:#000000"
       d="m 89.625785,157.82623 c 0.05303,-0.31819 4.401739,-8.85651 4.401739,-8.85651 l -3.394112,-1.85615 -5.144202,8.27315 z"
       id="path14" />
    <path
       style="display:inline;fill:#000000"
       d="m 73.344651,143.18912 -2.492551,-4.13657 8.538314,-4.61387 2.12132,3.28804 z"
       id="path15" />
    <path
       style="display:inline;fill:#000000"
       d="m 66.662492,122.18805 9.917173,0.10607 0.159099,-4.93207 -10.182338,-0.26517 z"
       id="path16" />
    <path
       style="display:inline;fill:#000000"
       d="m 70.958166,100.28542 8.697413,4.6669 1.909188,-3.12894 -8.167083,-5.462403 z"
       id="path17" />
    <path
       style="display:inline;fill:#000000"
       d="m 85.807408,84.004286 5.091169,8.485281 3.394112,-1.962221 -4.560838,-8.591348 z"
       id="path18" />
    <path
       style="display:inline;fill:#000000"
       d="m 75.675,64.95 5.2875,9.1125 c 0,0 2.325,-1.0125 2.0625,-1.2 -0.2625,-0.1875 -5.175,-9.225 -5.175,-9.225 z"
       id="path19" />
    <path
       style="display:inline;fill:#000000"
       d="M 45.15,117.7125 55.813649,117.6 55.793566,120.15455 45.0375,120.0375 Z"
       id="path20"
       sodipodi:nodetypes="ccccc" />
    <path
       style="display:inline;fill:#000000"
       d="m 77.25,174.2625 c 0,0 5.4,-9.0375 5.2125,-9.1875 C 82.275,164.925 80.25,163.8 80.25,163.8 l -5.2875,9.2625 z"
       id="path21" />
    <path
       style="display:inline;fill:#000000"
       d="m 133.0125,165.3 c 0,0 5.5875,9.7875 5.5125,9.5625 -0.075,-0.225 2.2125,-1.275 2.025,-1.3875 -0.1875,-0.1125 -5.55,-9.2625 -5.55,-9.2625 z"
       id="path22" />
    <path
       style="display:inline;fill:#000000"
       d="m 157.36875,147.3375 2.34375,-3.825 0.28125,0.1875 0.0375,2.86875 -0.0188,1.85625 0.75,0.73125 c 0,0 0.8909,0.43447 1.05,0.4875 0.39375,0.13125 1.05,0.18745 1.05,0.18745 0,0 0.91875,-0.24375 0.91875,-0.3375 0,-0.0937 0.95625,-1.2 0.9375,-1.3125 -0.0188,-0.1125 0.675,-1.2375 0.6375,-1.35 -0.0375,-0.1125 0.0424,-0.84325 -0.075,-1.125 -0.1875,-0.45 -0.5625,-1.0125 -0.5625,-1.0125 l -0.54375,-0.45 -0.9375,1.125 0.525,0.4125 0.20625,0.69375 -0.39375,0.80625 -0.43125,0.825 c 0,0 -0.3,0.39375 -0.4875,0.24375 -0.1875,-0.15 -0.99375,-0.54375 -0.99375,-0.54375 0,0 -0.1125,0 -0.15,-0.0937 -0.0375,-0.0937 0.075,-2.53125 0.0563,-2.60625 -0.0187,-0.075 -0.075,-1.48125 -0.075,-1.48125 l -0.20625,-0.61875 c 0,0 -1.95,-1.36875 -1.85625,-1.3125 0.0937,0.0563 -3.1875,4.95 -3.1875,4.95 z"
       id="path23"
       sodipodi:nodetypes="ccccccscscsscccccccscssccccc" />
    <path
       style="display:inline;fill:#000000"
       d="m 112.70625,176.6625 c 0,0 1.55625,-0.075 1.51875,-0.16875 -0.0375,-0.0937 -0.16875,-0.76875 -0.3,-0.88125 -0.13125,-0.1125 -0.88125,-0.9375 -0.975,-0.975 -0.0937,-0.0375 -0.80625,-0.075 -0.88125,-0.1125 -0.075,-0.0375 -2.2875,-0.0937 -2.2875,-0.0937 l -0.9,0.3375 -0.58125,0.76875 -0.225,0.4125 0.0375,1.9125 0.3375,0.43125 0.31875,0.3375 -0.2625,0.35625 c 0,0 -0.15,0.15 -0.2625,0.24375 -0.1125,0.0937 -0.0188,1.95 -0.0188,1.95 l 0.45,0.54375 0.58125,0.5625 0.825,0.35625 1.06875,-0.0563 1.35,-0.0563 1.18125,-0.5625 c 0,0 0.58125,-0.9375 0.54375,-1.0125 -0.0375,-0.075 0.1875,-0.43125 0.0188,-0.525 -0.16875,-0.0937 -1.55625,-0.375 -1.55625,-0.375 l -0.2625,0.7875 c 0,0 -0.225,0.31875 -0.39375,0.28125 -0.16875,-0.0375 -1.35,0.16875 -1.55625,0.075 -0.20625,-0.0937 -0.2625,-0.0187 -0.45,-0.225 -0.1875,-0.20625 -0.35625,-0.4125 -0.3,-0.5625 0.0563,-0.15 0.15,-0.73125 0.1875,-0.80625 0.0375,-0.075 0.20625,-0.45 0.3,-0.43125 0.0937,0.0187 1.36875,0.0187 1.36875,0.0187 l -0.0562,-1.14375 -1.5375,-0.0937 c 0,0 -0.28125,-0.20625 -0.3375,-0.28125 -0.0563,-0.075 0,-1.35 0,-1.35 l 0.375,-0.4125 c 0,0 1.8,-0.0187 1.89375,-0.0375 0.0937,-0.0188 0.525,0.39375 0.525,0.39375 z"
       id="path24" />
    <path
       id="path25"
       style="display:inline;fill:#000000"
       d="m 58.931641,147.59961 -1.25586,0.76953 0.523438,0.82422 -4.423828,2.58789 1.255859,2.0625 5.792969,0.46875 c 0,0 1.63164,-0.78828 1.55664,-0.86328 -0.075,-0.075 -2.230468,-3.67383 -2.230468,-3.67383 l 1.3125,-0.75 -0.900391,-1.38867 -1.125,0.73242 z m 0.01758,2.88867 1.36914,2.21094 -4.40625,-0.46875 z" />
    <path
       style="display:inline;fill:#000000"
       d="m 55.8,94.59375 -0.375,1.35 0.09375,0.225 c 0,0 1.2,0.01875 1.29375,-0.0375 0.09375,-0.05625 0.58125,-0.225 0.65625,-0.31875 0.075,-0.09375 0.58125,-0.50625 0.5625,-0.65625 -0.01875,-0.15 1.40625,-2.26875 1.40625,-2.26875 0,0 0.1875,-1.425 -0.09375,-1.6125 C 59.0625,91.0875 58.5375,90.54375 58.5375,90.54375 l -2.11875,-1.0875 -0.95625,0.20625 -0.91875,0.99375 c 0,0 -0.50625,0.61875 -0.54375,0.69375 -0.0375,0.075 -0.28125,0.65625 -0.28125,0.65625 l -0.05625,0.375 c 0,0 0.13125,0.7125 0.0375,0.61875 -0.09375,-0.09375 -1.3125,-0.7125 -1.3125,-0.7125 L 54.45,88.74375 53.15625,87.975 50.55,92.7375 l 3.43125,2.08125 0.9,-0.975 c 0,0 -0.148807,-0.419433 -0.1875,-0.6 -0.05625,-0.2625 0.20625,-0.9 0.20625,-0.9 l 0.73125,-0.975 0.39375,-0.31875 0.6375,0.1125 0.75,0.3 0.35625,0.39375 0.225,0.4875 -0.16875,0.6 -0.75,1.2 -0.3,0.4125 z"
       id="path26"
       sodipodi:nodetypes="cccssscsccccsccsccccccsccccccccccc" />
    <path
       id="path1"
       style="display:inline;fill:#000000"
       d="m 114.87539,55.293894 -12.48633,0.03906 -1.33511,-0.0054 6.88394,11.231916 1.33631,-0.01716 6.92045,-11.242163 z m -6.23828,2.007812 c 1.26257,2.08e-4 2.28622,0.989765 2.28711,2.210938 2.2e-4,1.221935 -1.02375,2.212682 -2.28711,2.21289 -1.26336,-2.08e-4 -2.28733,-0.990955 -2.28711,-2.21289 8.9e-4,-1.221173 1.02454,-2.21073 2.28711,-2.210938 z"
       sodipodi:nodetypes="cccccccccccc" />
    <path
       style="display:inline;fill:#000000"
       d="m 109.1446,77.481226 -0.053,10.288403 5.02426,-2.60303 c 0,0 2.76191,-7.694371 2.54981,-7.698238 l -7.52103,-0.137132 z"
       id="path3"
       sodipodi:nodetypes="cccscc" />
    <path
       style="display:inline;fill:#000000"
       d="m 108.03192,77.524082 0.053,10.288403 -4.94926,-2.73428 c 0,0 -2.83691,-7.563121 -2.62481,-7.566988 l 7.52103,-0.137132 z"
       id="path3-3"
       sodipodi:nodetypes="cccscc" />
    <path
       style="display:inline;fill:#000000"
       d="m 133.74925,72.97342 2.17435,1.166726 5.35634,-8.909545 -2.17436,-1.378859 z"
       id="path4" />
    <path
       style="display:inline;fill:#000000"
       d="m 128.18078,81.776899 3.97748,2.386486 c 0,0 -5.1442,8.432248 -5.40937,8.326182 -0.26516,-0.106066 -3.18198,-2.068287 -3.18198,-2.068287 z"
       id="path5"
       sodipodi:nodetypes="ccscc" />
    <path
       id="path27"
       style="fill:#000000"
       d="m 156.60742,148.09375 -0.98242,0.0273 -1.14062,1.2461 -1.32422,2.43945 -0.0547,0.74219 0.55859,0.68945 4.71875,2.78516 0.92774,0.18554 c 0,0 0.47845,-0.45027 0.66406,-0.60937 0.18562,-0.1591 2.09375,-3.05078 2.09375,-3.05078 0,0 0.0533,-0.71449 -0.0527,-0.95313 -0.10606,-0.23865 -1.21868,-1.11404 -1.40429,-1.32617 -0.18562,-0.21213 -4.00391,-2.17578 -4.00391,-2.17578 z M 156.5,149.55273 c 0,0 3.87133,2.41269 4.00391,2.49219 0.1326,0.0796 -0.0254,0.3711 -0.0254,0.3711 l -1.11524,1.88281 -0.5293,0.26562 -4.05664,-2.35937 -0.13281,-0.3711 1.43164,-2.22851 z" />
    <path
       id="path28"
       style="fill:#000000"
       d="m 105.43555,174.48828 c -1.08868,-0.0127 -3.24024,0.15039 -3.24024,0.15039 -0.10607,0.0265 -0.71679,0.18555 -0.71679,0.18555 l -0.29102,0.66211 -0.16016,1.35156 0.0273,3.63281 0.0527,1.06086 0.48836,0.82182 1.28869,0.10736 2.75811,0.0256 c 0,0 0.5822,0.0796 0.90039,-0.3711 0.3182,-0.45078 0.55664,-1.19246 0.55664,-1.35156 0,-0.1591 -0.0781,-4.85351 -0.0781,-4.85351 0,0 -0.24017,-1.03403 -0.42578,-1.06055 -0.18562,-0.0265 0.0544,-0.26421 -0.76758,-0.34375 -0.10275,-0.01 -0.23705,-0.0158 -0.39257,-0.0176 z m -2.60547,1.3418 h 2.49414 l 0.29101,0.31836 v 4.5625 c 0,0 -0.0803,0.31777 -0.21289,0.42383 -0.13258,0.106 -2.46619,-0.0533 -2.57226,0.0527 -0.10606,0.10607 -0.23828,-0.29102 -0.23828,-0.29102 l -0.0781,-4.77343 z"
       sodipodi:nodetypes="ccccccccccsscsssccccsscccc" />
    <path
       id="path29"
       style="fill:#000000"
       d="m 55.552734,141.67773 -4.748046,3.02344 -0.238282,0.50391 0.05273,0.60937 1.40625,2.75782 c 0,0 0.609007,0.84818 0.847656,0.92773 0.238648,0.0796 1.193359,0 1.193359,0 0,0 3.347067,-1.67367 3.554688,-1.80273 0.981111,-0.60988 1.670588,-1.29966 1.670588,-1.29966 l -6.66e-4,-0.98159 c 0,0 -0.95315,-1.96272 -1.140625,-2.22657 -0.715946,-1.00763 -1.404297,-1.61695 -1.404297,-1.61695 z m 0.449219,1.48438 c 0,0 0.346462,0.0801 0.558594,0.0801 0.212132,0 0.848116,1.80289 1.113281,2.12109 0.265162,0.31819 -0.02734,0.42383 -0.02734,0.42383 0,0 -3.817762,2.14949 -3.923828,2.30859 -0.106066,0.15905 -0.345703,-0.0801 -0.345703,-0.0801 0,0 -1.456801,-2.20109 -1.324219,-2.38671 z"
       sodipodi:nodetypes="cccccccsccscccsscsccc" />
    <path
       id="path30"
       style="fill:#000000"
       d="m 57.699219,82.253906 -1.166016,0.31836 -1.935547,3.076172 -0.21289,0.636718 0.292968,0.609375 1.976563,1.519922 2.314844,1.341797 0.851171,0.347266 c 0,0 0.530355,-5.29e-4 0.689454,-0.08008 0.159099,-0.07955 0.503906,-0.398438 0.503906,-0.398438 l 0.21289,-0.185547 c 0,0 1.326172,-1.802137 1.326172,-1.908203 0,-0.106066 0.582561,-0.769991 0.66211,-1.035156 0.07955,-0.265165 -0.132813,-1.19336 -0.132813,-1.19336 L 58.759766,82.625 Z m -0.258594,1.552735 0.483594,-0.02227 c 0,0 3.487293,2.101747 3.593359,2.207813 0.106066,0.106066 0.03564,0.440418 0.08867,0.546484 0.05303,0.106066 -0.983363,1.385386 -1.338281,1.836719 -0.115901,0.147386 -0.447657,0.216406 -0.447657,0.216406 l -3.710937,-2.28125 -0.08008,-0.34375 z"
       sodipodi:nodetypes="ccccccccsccsscccccssscccc" />
  </g>
</svg>
