<?xml version="1.0" encoding="UTF-8" standalone="no"?>
<!-- Created with Inkscape (http://www.inkscape.org/) -->

<svg
   version="1.1"
   id="svg1"
   width="1143.6923"
   height="1155.3334"
   viewBox="0 0 1143.6923 1155.3333"
   sodipodi:docname="tudor.svg"
   inkscape:version="1.4 (e7c3feb100, 2024-10-09)"
   xmlns:inkscape="http://www.inkscape.org/namespaces/inkscape"
   xmlns:sodipodi="http://sodipodi.sourceforge.net/DTD/sodipodi-0.dtd"
   xmlns="http://www.w3.org/2000/svg"
   xmlns:svg="http://www.w3.org/2000/svg">
  <defs
     id="defs1" />
  <sodipodi:namedview
     id="namedview1"
     pagecolor="#505050"
     bordercolor="#ffffff"
     borderopacity="1"
     inkscape:showpageshadow="0"
     inkscape:pageopacity="0"
     inkscape:pagecheckerboard="1"
     inkscape:deskcolor="#505050"
     inkscape:zoom="0.69257138"
     inkscape:cx="569.61638"
     inkscape:cy="574.67001"
     inkscape:window-width="1920"
     inkscape:window-height="1011"
     inkscape:window-x="0"
     inkscape:window-y="0"
     inkscape:window-maximized="1"
     inkscape:current-layer="g1" />
  <g
     inkscape:groupmode="layer"
     inkscape:label="Image"
     id="g1"
     transform="translate(-9.4559867,-8.6666673)">
    <path
       style="fill:#000000"
       d="m 575.55447,1161.6667 c -0.34388,-1.2833 -0.23431,-8.6333 0.24348,-16.3333 l 0.86872,-14 H 582 h 5.33333 l 0.72864,14 c 0.96457,18.5332 0.92076,18.6667 -6.12763,18.6667 -4.35354,0 -5.90687,-0.5681 -6.37987,-2.3334 z m -56.78576,-4 c 0.0561,-2.0166 0.80612,-9.0666 1.66667,-15.6666 1.18421,-9.0824 2.05089,-12 3.56462,-12 2.23823,0 2.55668,9.6584 0.78032,23.6666 -0.80476,6.3463 -1.41496,7.6667 -3.54293,7.6667 -1.94027,0 -2.5457,-0.8992 -2.46868,-3.6667 z m 119.11764,-5.3333 c -1.77636,-14.0082 -1.45791,-23.6667 0.78032,-23.6667 1.51373,0 2.38041,2.9177 3.56462,12 2.29935,17.6351 2.2289,19.3334 -0.80201,19.3334 -2.12798,0 -2.73817,-1.3204 -3.54293,-7.6667 z m 61.21974,-1.4213 c -2.42018,-1.54 -7.74844,-29.4697 -5.96273,-31.2554 2.46173,-2.4617 3.86039,0.16 6.79126,12.7296 3.71439,15.9301 3.47581,21.2648 -0.82853,18.5258 z M 460,1149.4093 c 0,-0.7937 1.2,-5.7733 2.66667,-11.066 1.46666,-5.2926 2.66666,-11.2115 2.66666,-13.1532 0,-4.1444 2.65861,-6.8431 5.19637,-5.2747 1.79947,1.1122 1.83783,0.8485 -3.79457,26.0847 -0.61189,2.7416 -1.81174,4.134 -3.81394,4.426 -1.60665,0.2344 -2.92119,-0.2232 -2.92119,-1.0168 z m -56.72452,-15.0792 c -0.35246,-0.9185 1.36979,-7.6685 3.82723,-15 3.22123,-9.6102 5.1401,-13.4607 6.87635,-13.7984 2.06804,-0.4022 2.28351,0.1629 1.52505,4 -1.36598,6.9106 -6.46486,22.9421 -7.88824,24.8017 -1.63223,2.1324 -3.52139,2.131 -4.34039,0 z m 351.35819,-1.7502 c -0.71519,-1.881 -1.30034,-3.9128 -1.30034,-4.5149 0,-0.6022 -1.56029,-5.7405 -3.46732,-11.4184 -2.81227,-8.3732 -3.12924,-10.5325 -1.67781,-11.4295 0.98652,-0.6097 2.34973,-0.5458 3.038,0.1425 1.21228,1.2123 10.10713,27.1585 10.10713,29.4824 0,2.7942 -5.48087,0.9436 -6.69966,-2.2621 z m -407.37442,-19.6254 c -0.97587,-2.5431 10.96082,-28.2172 13.35228,-28.7189 1.24378,-0.2609 2.05514,0.5071 2.05514,1.9452 0,2.5547 -8.82794,24.0612 -11.00871,26.8193 -1.69674,2.1459 -3.56519,2.1265 -4.39871,-0.046 z m 463.51396,-1.2878 c -0.63843,-1.65 -3.32358,-7.7249 -5.967,-13.4997 C 802.1628,1092.3921 800,1086.8421 800,1085.8336 c 0,-2.2903 3.2483,-2.4004 4.92356,-0.1669 2.40197,3.2024 11.07644,23.9133 11.07644,26.4458 0,3.5373 -3.81139,3.2123 -5.22679,-0.4458 z m -247.08391,-3.3352 c -19.44218,-2.98 -31.43458,-9.9455 -37.67701,-21.8839 -3.37351,-6.4518 -3.57304,-7.8394 -3.42994,-23.8541 0.0951,-10.6466 0.88465,-19.4711 2.11173,-23.6031 3.77907,-12.7256 14.06139,-24.6066 26.96064,-31.1525 l 8.8764,-4.5045 20.06777,0.079 c 20.77058,0.082 29.41711,1.5461 42.67027,7.227 7.17171,3.0742 7.84414,6.3307 3.06417,14.8396 -3.38995,6.0345 -2.52597,5.9644 -23,1.8642 -6.88804,-1.3795 -15.6261,-1.9957 -24.66666,-1.7396 -12.36981,0.3505 -14.89072,0.848 -21.64944,4.2726 -7.65933,3.881 -12.75894,8.1601 -11.37457,9.5445 0.40558,0.4056 4.501,-0.4981 9.10092,-2.0082 10.82239,-3.5528 36.95676,-3.8777 48.01442,-0.5969 16.14422,4.79 25.36777,11.3061 31.24653,22.0744 9.87236,18.0835 -0.65945,38.3114 -24.30482,46.6809 -10.38885,3.6773 -31.6914,4.9555 -46.01041,2.7608 z m 38.07721,-22.7057 c 5.73549,-1.6174 8.96077,-3.5121 12.33333,-7.2451 2.51175,-2.7803 4.56683,-5.6324 4.56683,-6.3381 0,-3.3377 -8.5995,-10.6974 -15.06217,-12.8906 -9.34003,-3.1697 -33.11663,-3.128 -44.12434,0.077 -9.61134,2.7988 -12.80907,4.8126 -15.86981,9.994 l -2.36543,4.0044 4.66191,5.1601 c 9.13613,10.1126 34.16582,13.3558 55.85968,7.2378 z M 295,1086.3743 c -2.38333,-1.4408 -4.33333,-3.1973 -4.33333,-3.9033 0,-0.706 2.25,-5.0892 5,-9.7404 2.75,-4.6512 6.02209,-10.3183 7.27132,-12.5936 2.70115,-4.9198 4.47268,-5.1288 9.4836,-1.1188 l 3.75491,3.0049 -6.20831,11.3218 c -3.41457,6.227 -7.20428,12.2955 -8.42158,13.4855 -2.04312,1.9973 -2.54642,1.9623 -6.54661,-0.4561 z m 559.82245,-10.6086 C 851.0701,1069.0368 848,1062.983 848,1062.3128 c 0,-1.8779 5.72551,-6.2186 8.26808,-6.2684 1.44265,-0.028 4.07358,3.2311 7.22919,8.9557 2.72861,4.95 6.05797,10.5926 7.39859,12.5391 1.34061,1.9466 2.43747,4.1526 2.43747,4.9024 0,1.4768 -7.37913,5.5585 -10.04906,5.5585 -0.90165,0 -4.70947,-5.5055 -8.46182,-12.2344 z m -610.26932,-22.914 c -0.98517,-2.5674 15.61971,-26.177 18.11354,-25.7547 3.39819,0.5753 2.04319,3.8466 -6.59612,15.9246 -8.32286,11.6356 -10.20736,13.244 -11.51742,9.8301 z m 662.97244,-10.2186 c -8.91895,-12.1153 -10.78388,-16.5354 -6.63708,-15.7308 2.1004,0.4075 5.83381,4.9472 14.96965,18.2025 3.55873,5.1634 4.26014,9.5619 1.52478,9.5619 -0.54914,0 -4.98495,-5.4151 -9.85735,-12.0336 z m -579.76721,0.6593 c -3.4329,-1.7876 -6.62393,-3.8688 -7.09117,-4.6248 -0.46725,-0.756 -2.80215,-2.1904 -5.18867,-3.1876 -5.23085,-2.1856 -14.14519,-9.7828 -14.14519,-12.0552 0,-0.8978 6.15,-8.8617 13.66667,-17.6976 7.51667,-8.83583 18.76667,-22.23087 25,-29.76675 6.23333,-7.53587 14.03333,-16.81344 17.33333,-20.61683 3.3,-3.80339 8.27987,-9.71162 11.06637,-13.1294 5.78863,-7.10006 8.38109,-7.79435 9.51223,-2.54749 0.8818,4.09028 0.13192,6.92307 -5.91193,22.33334 -2.30089,5.86666 -4.69721,12.16666 -5.32516,14 -0.62796,1.83333 -2.43298,6.63333 -4.01116,10.66667 -1.57818,4.03333 -4.54696,12.13333 -6.5973,17.99996 -5.47482,15.6652 -14.59762,38.2303 -16.27145,40.2471 -2.06038,2.4826 -4.88622,2.102 -12.03657,-1.6214 z m 490.31725,0.411 C 816.93402,1042.0736 816,1039.9638 816,1039.0151 c 0,-0.9487 -2.63263,-9.0652 -5.85029,-18.0367 -8.148,-22.71813 -12.76083,-36.2998 -15.50273,-45.645 -1.29096,-4.4 -3.64593,-11.3 -5.23326,-15.33333 -1.58733,-4.03334 -3.42491,-10.03334 -4.08352,-13.33334 -0.65861,-3.3 -1.59728,-7.65 -2.08594,-9.66666 -0.74417,-3.07116 -0.45666,-3.66667 1.77022,-3.66667 1.82147,0 6.25616,4.72345 14.083,15 10.71129,14.06379 25.30675,33.00828 37.23761,48.33334 11.22066,14.41286 20.99725,27.69126 20.97783,28.49186 -0.049,2.0214 -2.38019,4.0181 -7.97959,6.8349 -3.3,1.66 -10.33978,5.6406 -15.64397,8.8457 -5.30418,3.2052 -10.52016,5.8275 -11.59106,5.8275 -1.0709,0 -2.88111,-1.3335 -4.02269,-2.9633 z m -620.74228,-29.1175 c 0,-2.0715 18.62924,-23.2525 20.45114,-23.2525 3.38568,0 1.1921,4.83037 -5.78447,12.7377 -4.03333,4.5715 -7.81315,9.1256 -8.39959,10.1203 -1.2564,2.1312 -6.26708,2.4466 -6.26708,0.3945 z m 754.81093,-9.7492 c -9.51816,-11.21125 -11.10017,-14.16996 -7.57657,-14.16996 2.49045,0 22.41495,22.41006 21.39368,24.06246 -1.78133,2.8823 -4.81616,0.7095 -13.81711,-9.8925 z M 156.13855,971.00007 c 0.16949,-2.85435 18.89817,-20.33334 21.7871,-20.33334 4.22714,0 1.80712,3.92526 -8.12057,13.17152 -10.25616,9.55219 -13.92256,11.47353 -13.66653,7.16182 z m 836.80358,-7.90881 c -6.42224,-6.30393 -10.11419,-10.92163 -9.66596,-12.08969 0.39888,-1.03946 1.273,-1.69003 1.94248,-1.44571 2.86311,1.04483 22.78135,20.19353 22.78135,21.90119 0,4.19182 -5.2179,1.29287 -15.05787,-8.36579 z M 117.74151,925.80725 c -0.52281,-1.36243 0.12417,-2.86384 1.70852,-3.96485 9.82838,-6.83 17.93252,-12.96174 19.28502,-14.59141 2.03447,-2.45138 4.77154,-2.45991 5.70867,-0.0178 0.46706,1.21715 -1.99695,3.95779 -6.85735,7.62717 -4.1725,3.15006 -9.55725,7.39515 -11.9661,9.43353 -5.04092,4.26567 -6.70029,4.5844 -7.87876,1.51335 z m 913.86749,-6.45454 c -12.5182,-9.44231 -13.892,-10.93635 -11.8934,-12.93488 1.6306,-1.63062 25.6177,15.48291 25.6177,18.27688 0,3.9837 -2.8115,2.88935 -13.7243,-5.342 z M 86.153347,876.71364 c -3.43795,-5.24698 -2.625104,-7.05208 5.51332,-12.24353 4.216666,-2.68978 9.344603,-6.03452 11.395413,-7.43276 4.79501,-3.26922 7.09881,-2.70421 10.41782,2.55498 l 2.68776,4.25894 -5.7505,3.61303 c -3.16277,1.98716 -8.7944,5.62064 -12.514739,8.07439 -8.088707,5.33492 -8.96588,5.42264 -11.749074,1.17495 z m 978.950053,-1.18422 c -3.4265,-2.30781 -8.6765,-5.66664 -11.6667,-7.46406 -6.2401,-3.75099 -6.6676,-5.84374 -2.307,-11.2935 l 3.1165,-3.89486 4.5436,3.3739 c 2.4989,1.85564 7.3995,4.76765 10.8901,6.47113 3.4906,1.70348 7.3074,4.15898 8.4818,5.45668 1.9674,2.17394 1.9054,2.73143 -0.7886,7.0904 -1.6082,2.60202 -3.625,4.66916 -4.4818,4.59365 -0.8569,-0.0755 -4.3615,-2.02552 -7.7879,-4.33334 z m -897.77007,-9.46179 c -13.89447,-2.4491 -24.28819,-6.95118 -30.5702,-13.24162 -13.71189,-13.73026 -13.30175,-28.22249 1.14036,-40.2946 l 5.92706,-4.95441 -3.36297,-6.6365 c -2.59774,-5.12638 -3.15924,-7.72249 -2.46764,-11.40907 1.92457,-10.25881 7.93037,-17.43658 18.81078,-22.4815 6.75367,-3.13147 9.96987,-3.71501 22.9219,-4.15888 12.98975,-0.44517 16.38899,-0.0917 24.66666,2.56479 12.75348,4.09291 21.34837,11.82204 23.60456,21.22688 1.71656,7.15544 0.81286,14.05417 -2.30424,17.59029 -1.82255,2.06755 -1.33346,2.97553 5.41201,10.04746 5.58948,5.85998 7.75432,9.28583 8.79099,13.91163 5.88988,26.28184 -30.49478,45.25176 -72.56927,37.83553 z m 30.75512,-18.1814 c 9.58188,-1.75269 16.02297,-4.53061 20.91155,-9.01876 4.88587,-4.48566 4.6226,-7.21864 -1.1541,-11.98028 -9.03008,-7.44336 -27.80444,-9.95095 -50.74942,-6.77833 -11.61432,1.60593 -18.16813,4.89506 -21.11725,10.59802 -1.83033,3.53947 -1.74007,4.03947 1.40358,7.77548 7.29392,8.66834 30.84666,13.03643 50.70564,9.40387 z m 4.57822,-45.95631 c 7.98738,-3.11978 10.66666,-5.61399 10.66666,-9.92986 0,-7.843 -11.31185,-12.69559 -29.33333,-12.58348 -14.40411,0.0896 -24.16074,3.17212 -28.51975,9.01053 -2.42638,3.24988 -2.44036,3.59317 -0.28054,6.88947 5.88902,8.98778 32.05446,12.63329 47.46696,6.61334 z m 795.39759,60.84737 c -2.65403,-1.61038 -3.39759,-3.13729 -3.39759,-6.977 0,-9.86285 2.96588,-9.23934 -42.96859,-9.03333 -36.65954,0.16442 -41.56359,-0.061 -43.50204,-1.99943 -2.0241,-2.0241 -1.43052,-3.67675 8.07268,-22.47611 18.17457,-35.95318 27.22463,-51.70863 31.9107,-55.55407 10.1781,-8.35226 11.67524,-8.70088 39.38645,-9.17131 l 25.56583,-0.43402 1.6845,3.10069 c 1.1764,2.16552 1.7819,11.74649 2.0077,31.76735 l 0.3233,28.66666 6.4264,0.34842 c 13.0555,0.70783 15.0931,2.82293 15.0931,15.66741 0,8.35216 -2.4048,10.65442 -9.6993,9.28596 -2.3806,-0.44662 -5.9722,-0.18708 -7.9813,0.57676 -3.3046,1.25642 -3.6528,2.01982 -3.6528,8.00977 0,7.55899 -0.8013,8.35046 -9.5965,9.47878 -4.4767,0.57431 -7.2486,0.21421 -9.67254,-1.25653 z m -5.02765,-60.4439 -0.36994,-19 -8.45703,-1.13284 c -18.20519,-2.43864 -23.58406,0.44969 -32.20964,17.29581 -2.56667,5.01282 -6.01667,11.36492 -7.66667,14.11579 -1.65,2.75087 -3,5.61351 -3,6.36141 0,0.87779 9.22955,1.35983 26.03661,1.35983 h 26.03661 z M 59.165438,822.04332 c -0.40429,-1.05356 -0.407928,-2.44489 -0.0081,-3.09185 1.455217,-2.35459 26.2714,-12.72266 27.503319,-11.49074 2.21906,2.21906 -0.576686,4.34558 -13.753695,10.46145 -10.306164,4.78342 -13.159075,5.63902 -13.741538,4.12114 z M 1088.0304,816.28977 c -6.9499,-3.45934 -12.8252,-6.96579 -13.0563,-7.7921 -0.9498,-3.39651 3.7192,-2.45623 16.0259,3.22743 9.6024,4.43471 13,6.64912 13,8.47274 0,3.5641 -1.884,3.10303 -15.9696,-3.90807 z M 37.333333,764.74541 c 0,-2.55827 0.848693,-3.00158 15.540081,-8.11739 10.452049,-3.6396 12.76028,-4.06334 13.377164,-2.45577 1.044009,2.72065 0.51129,3.06023 -12.580528,8.01955 -12.895102,4.88479 -16.336717,5.42275 -16.336717,2.55361 z m 1081.333367,0.72077 c -1.1,-0.6157 -6.95,-2.7813 -13,-4.81245 -10.0412,-3.37108 -13.1222,-5.85142 -9.8106,-7.89807 0.6542,-0.4043 7.4042,1.29455 15,3.77524 11.2461,3.67283 13.8897,5.03262 14.2366,7.32308 0.4548,3.00196 -2.582,3.76383 -6.426,1.6122 z M 22.09337,706.81779 c -1.318452,-2.1333 2.385849,-3.72403 15.744217,-6.76099 10.824321,-2.46086 13.368131,-2.67526 14.277813,-1.20336 1.685444,2.7271 -0.06413,3.68023 -11.979361,6.52611 -11.990207,2.86378 -16.918827,3.25666 -18.042669,1.43824 z M 1124,705.40242 c -12.4941,-3.01359 -14.9065,-4.00981 -14.2869,-5.89998 0.8281,-2.52611 6.4001,-2.27753 18.9536,0.84555 8.4509,2.10245 12,3.5769 12,4.98539 0,2.85112 -5.0458,2.87202 -16.6667,0.069 z M 12,647.29153 c 0,-2.61855 0.728706,-2.84484 16.666667,-5.17571 13.19153,-1.92921 16.389744,-1.45858 14.983924,2.20493 -0.474175,1.23568 -5.204175,2.35394 -14.510377,3.43053 C 11.867686,649.74946 12,649.753 12,647.29153 Z m 1123.3333,0.40791 c -14.9143,-1.70786 -16.6666,-2.16132 -16.6666,-4.31278 0,-3.13862 1.6657,-3.33408 15.4467,-1.81251 14.2269,1.5708 17.5951,2.8973 15.0731,5.93613 -0.8322,1.00271 -1.8896,1.73029 -2.3498,1.61686 -0.4602,-0.11344 -5.6367,-0.7559 -11.5034,-1.4277 z m -64.6666,-41.90479 c -10.6334,-1.79485 -26.2334,-4.40169 -34.6667,-5.79297 -44.46554,-7.33566 -49.33333,-8.59237 -49.33333,-12.73633 0,-3.74103 4.34399,-5.61751 18.22593,-7.87309 7.9424,-1.2905 26.1407,-4.36065 40.4407,-6.82256 41.9678,-7.22523 53.6859,-8.75048 55.2455,-7.19083 2.1264,2.12636 2.7854,39.50743 0.74,41.97202 -2.1832,2.63064 -7.4239,2.36457 -30.6521,-1.55624 z M 60.014536,604.68422 c -2.045424,-2.46458 -1.386397,-39.84565 0.739966,-41.97202 1.559646,-1.55964 13.277776,-0.0344 55.245498,7.19083 14.3,2.46191 32.49833,5.53207 40.44072,6.82257 13.88195,2.25557 18.22595,4.13205 18.22595,7.87309 0,4.14419 -5.05302,5.44782 -49.33334,12.72753 -65.576683,10.78083 -62.743017,10.46163 -65.318794,7.358 z M 9.8642089,591.4603 C 9.4688882,590.43011 9.3377191,587.58011 9.572722,585.12697 L 10,580.66671 23.773703,580.00004 c 7.575537,-0.36667 14.625537,-0.18685 15.666667,0.39959 2.911465,1.63994 2.421555,9.89036 -0.686048,11.5535 -4.108192,2.19864 -28.013788,1.79084 -28.8901131,-0.49283 z M 1123.9217,591.70967 c -3.1047,-1.14796 -3.6334,-9.18244 -0.7611,-11.56627 2.5387,-2.10691 27.1355,-1.52977 28.9692,0.67975 0.7566,0.9116 1.1869,3.94933 0.9562,6.75051 l -0.4193,5.09305 h -13.0783 c -7.1931,0 -14.2431,-0.43067 -15.6667,-0.95704 z M 25.623162,530.57367 c -4.607261,-0.59852 -9.557261,-1.46287 -11,-1.92077 -2.662987,-0.8452 -3.550763,-3.9222 -1.497723,-5.19104 1.385872,-0.85652 29.212899,2.43207 30.369936,3.58911 0.458734,0.45873 0.478769,1.75994 0.04452,2.89156 -0.870307,2.26799 -4.368199,2.39121 -17.916736,0.63114 z M 1119.1621,530.03473 c -1.3288,-3.46295 0.5421,-4.17149 15.4167,-5.83846 10.9303,-1.22493 14.129,-1.20829 14.9238,0.0776 1.7602,2.84813 -1.3394,4.73529 -9.2092,5.60684 -4.1947,0.46456 -10.4741,1.18739 -13.9542,1.6063 -5.125,0.61689 -6.4889,0.34089 -7.1771,-1.45229 z M 43.850479,474.07273 c -0.326682,-0.32668 -4.776682,-1.25739 -9.888889,-2.06825 -9.899546,-1.57019 -14.330215,-4.16916 -11.659866,-6.83951 1.138808,-1.1388 4.473323,-0.80586 13.276191,1.32558 6.46548,1.56549 12.741225,2.84555 13.9461,2.84458 2.270672,-0.002 4.22765,3.13546 2.828561,4.53455 -0.923357,0.92336 -7.621816,1.08334 -8.502097,0.20305 z M 1110.0112,473.35152 c -1.6313,-2.63956 0.7543,-3.74804 14.4388,-6.7091 12.7763,-2.76456 16.8833,-2.78024 16.8833,-0.0645 0,2.18309 -4.6168,3.99474 -13.5612,5.32149 -4.6413,0.68845 -10.316,1.65317 -12.6104,2.14383 -2.6661,0.57014 -4.5249,0.3205 -5.1505,-0.69174 z M 50.699678,415.1273 c -6.948511,-2.53924 -12.872634,-4.85578 -13.164718,-5.14787 -0.292085,-0.29208 -0.198312,-1.39819 0.208383,-2.45803 C 38.910937,404.4787 66,413.22652 66,416.64627 c 0,1.35568 -0.6,2.60729 -1.333333,2.78135 -0.733334,0.17407 -7.018479,-1.76108 -13.966989,-4.30032 z M 1096,416.31379 c 0,-1.81092 3.1096,-3.34106 13.4994,-6.64274 7.4246,-2.35941 14.0246,-3.96519 14.6666,-3.5684 3.5627,2.20183 0.2068,4.69055 -11.4227,8.47118 -14.5576,4.7325 -16.7433,4.95964 -16.7433,1.73996 z m -904.20299,-5.50156 c -19.1516,-4.88325 -34.10364,-19.89486 -39.32222,-39.47887 -5.45138,-20.45768 3.63632,-44.35879 21.55317,-56.6859 17.22161,-11.84879 41.78691,-11.67246 57.92712,0.41578 9.18332,6.87787 12.29594,10.43311 17.16287,19.60345 8.31199,15.66159 8.8282,32.24609 1.45814,46.84611 -12.01196,23.79556 -35.14368,35.32596 -58.77908,29.29943 z m 25.76957,-21.16575 c 11.20618,-4.98806 21.10009,-19.42105 21.10009,-30.78029 0,-7.10566 -3.35973,-16.14849 -8.16617,-21.97954 -12.09496,-14.67328 -39.07438,-15.2489 -52.51587,-1.12046 -5.1666,5.43066 -9.98865,16.68391 -9.97719,23.28385 0.0271,15.63319 11.47744,29.66377 27.32589,33.48367 4.93852,1.19032 16.42325,-0.3011 22.23325,-2.88723 z m -92.80468,16.25831 c -1.82567,-1.82567 -2.09523,-8.15442 -2.09523,-49.19068 0,-53.3337 -1.13284,-48.71409 11.94579,-48.71409 5.12486,0 8.26825,0.65134 9.33259,1.93379 1.90841,2.29949 3.05155,90.18532 1.23653,95.06622 -0.99879,2.68595 -2.01633,3 -9.72001,3 -6.04443,0 -9.2278,-0.62338 -10.69967,-2.09524 z m 795.98015,-3.1548 c -1.82402,-2.01552 -2.14355,-3.84728 -1.45364,-8.33333 1.31436,-8.54648 7.88365,-21.18142 14.33277,-27.56671 9.81618,-9.71901 16.09776,-11.89046 45.18159,-15.61855 23.88673,-3.06191 26.09323,-3.57263 28.86393,-6.68105 5.39,-6.0471 3.3481,-14.0934 -4.3979,-17.32987 -4.97772,-2.07984 -32.99613,-2.48854 -45.81425,-0.66828 -6.26158,0.88918 -7.84431,1.76555 -12.00876,6.64928 -4.93452,5.7868 -8.99287,7.05821 -15.71733,4.92395 -6.86389,-2.17851 -4.58234,-14.46349 4.26657,-22.9733 9.40441,-9.04403 15.63696,-10.48544 45.3383,-10.48544 23.97197,0 25.65577,0.16785 31.33337,3.12347 11.522,5.9981 18.386,15.62359 19.6119,27.50214 0.8291,8.03314 -0.5543,13.02228 -5.9163,21.3367 -6.696,10.38281 -11.7449,12.46968 -37.26363,15.40205 -12.3376,1.41772 -24.832,3.25371 -27.76534,4.07997 -6.93562,1.95364 -12.66666,5.35146 -12.66666,7.50982 0,1.357 8.43274,1.71252 40.61975,1.71252 38.79498,0 40.68178,0.11586 41.99998,2.57901 1.776,3.31839 1.776,11.52359 0,14.84198 -1.3287,2.48265 -3.3386,2.57901 -53.79333,2.57901 -50.15647,0 -52.51376,-0.11122 -54.75102,-2.58337 z M 80.812006,364.36759 c -0.531174,-0.53118 -5.581174,-2.81292 -11.222222,-5.07054 -7.967211,-3.18858 -10.351549,-4.75862 -10.682519,-7.03423 -0.560799,-3.85582 0.390288,-3.73267 11.954346,1.54781 5.392781,2.4625 11.455056,5.14964 13.471722,5.97142 4.530793,1.84626 4.901581,5.55131 0.555556,5.55131 -1.711111,0 -3.545708,-0.4346 -4.076883,-0.96577 z m 994.743594,0.0769 c -2.1471,-2.14706 -0.4503,-4.07537 5.4543,-6.19865 3.4888,-1.25455 9.2905,-3.77308 12.8926,-5.59673 7.8463,-3.97229 10.0975,-4.15041 10.0975,-0.79894 0,1.89916 -2.6222,3.57382 -10.6852,6.82402 -5.8769,2.36897 -11.0123,4.83642 -11.412,5.48321 -0.8529,1.37994 -5.0639,1.57041 -6.3472,0.28709 z M 96,310.55239 c -6.233333,-3.63425 -11.543496,-7.22576 -11.800362,-7.98113 -0.700203,-2.05912 2.460175,-8.94997 4.45601,-9.71585 0.959657,-0.36825 3.72129,0.78864 6.136964,2.57086 2.415674,1.78223 4.835699,3.24042 5.377838,3.24042 2.36587,0 14.49622,8.57396 14.49622,10.24621 0,2.65738 -4.03554,8.43598 -5.82002,8.33383 -0.83232,-0.0477 -6.61332,-3.0601 -12.84665,-6.69434 z m 953.5439,2.48827 c -3.2248,-5.09332 -2.56,-6.27755 6.3498,-11.30994 3.3585,-1.89691 8.3965,-4.97178 11.1956,-6.83304 l 5.0893,-3.38411 3.1961,3.90989 c 4.8873,5.97879 4.1845,7.7347 -5.0414,12.59637 -4.5833,2.41523 -9.9259,5.49883 -11.8725,6.85243 -4.8034,3.34029 -5.7677,3.14224 -8.9169,-1.8316 z M 129.33333,257.89663 c -11.98135,-9.10046 -13.41323,-10.77133 -10.26565,-11.97917 2.68221,-1.02926 24.91475,15.39752 24.92466,18.41589 0.0126,3.82601 -2.73689,2.61873 -14.65901,-6.43672 z m 888.72847,6.20334 c -0.8713,-1.40974 21.4854,-18.76662 24.1725,-18.76662 4.4306,0 0.8668,4.68581 -9.1371,12.01367 -10.7916,7.90485 -13.5561,9.1465 -15.0354,6.75295 z M 367.16981,227.42927 C 364.32642,224.18203 360.2,219.15926 358,216.26757 c -7.23528,-9.51009 -25.0855,-32.27487 -39.80187,-50.7602 -7.9577,-9.99571 -15.09591,-19.50626 -15.8627,-21.13454 -1.84134,-3.91012 0.0941,-6.16351 9.58479,-11.15919 8.84373,-4.65515 14.62674,-7.95487 19.24624,-10.98168 1.87351,-1.22758 4.01366,-2.23195 4.75589,-2.23195 1.88575,0 5.46272,5.76922 6.80144,10.9699 1.04286,4.05133 7.14674,21.75418 16.90541,49.0301 2.23014,6.23334 4.78473,13.43334 5.67687,16 12.08296,34.76224 12.68357,37.33334 8.72109,37.33334 -0.92814,0 -4.01395,-2.65684 -6.85735,-5.90408 z M 781.6,230.40002 c -2.2134,-2.21341 -2.01513,-4.62102 1.01905,-12.37424 1.44048,-3.68084 4.79422,-12.99243 7.45276,-20.69243 2.65854,-7.7 6.82575,-19.4 9.26047,-26 2.43471,-6.60001 5.609,-15.60001 7.05397,-20.00001 7.26707,-22.12859 11.31513,-32.66667 12.54845,-32.66667 0.74972,0 5.04611,2.00964 9.54754,4.46587 16.80534,9.16991 24.85543,14.38422 26.26064,17.00988 1.75468,3.27865 0.80614,4.86792 -13.3213,22.31972 -10.67626,13.1885 -26.08436,32.88248 -41.53964,53.0942 -7.77581,10.16885 -13.97101,16.44368 -16.23503,16.44368 -0.2458,0 -1.16691,-0.72 -2.04691,-1.6 z M 166.57847,212.4313 c -9.40864,-8.45014 -13.38261,-14.58247 -8.78083,-13.5499 3.08499,0.69221 22.20236,18.38328 22.20236,20.54589 0,3.69628 -3.61382,1.81257 -13.42153,-6.99599 z m 815.34245,7.44077 c -0.49671,-0.80371 -0.0821,-2.19929 0.92131,-3.10129 11.90396,-10.7006 21.01217,-18.1041 22.27267,-18.1041 4.0475,0 0.402,5.48744 -9.07925,13.66667 -10.5867,9.13289 -12.49843,10.15395 -14.11473,7.53872 z M 206.96211,170.21075 c -9.06547,-9.21658 -11.24643,-13.0536 -8.41449,-14.80383 1.42851,-0.88287 21.40067,20.4825 21.43141,22.92643 0.0458,3.63893 -3.82241,1.22517 -13.01692,-8.1226 z m 735.0781,8.52098 c -1.00869,-1.63209 19.31252,-24.21045 20.90456,-23.22651 2.57977,1.59439 0.44008,5.49174 -7.8688,14.33266 -9.16394,9.75075 -11.51487,11.35471 -13.03576,8.89385 z M 508.22403,161.98198 c -2.50004,-3.17829 -2.64571,-5.69809 -2.82083,-48.79423 -0.13359,-32.878195 0.24502,-45.960597 1.36934,-47.315313 2.32838,-2.805532 17.66954,-2.552436 20.0642,0.331016 1.45548,1.752573 1.92032,11.845603 2.2717,49.325107 l 0.44177,47.12166 -3.52857,1.34156 c -1.94071,0.73786 -6.14596,1.34156 -9.345,1.34156 -4.62444,0 -6.35667,-0.6868 -8.45261,-3.35136 z m 31.18468,-0.56534 c -1.82401,-2.01552 -2.14354,-3.84728 -1.45363,-8.33333 1.31436,-8.54648 7.88365,-21.18142 14.33277,-27.56671 9.81617,-9.71901 16.09776,-11.89046 45.18159,-15.61855 23.88675,-3.06191 26.09323,-3.57263 28.86389,-6.68105 5.39006,-6.047104 3.34814,-14.093399 -4.39783,-17.329871 -4.97776,-2.079841 -32.99617,-2.488537 -45.81429,-0.668279 -6.26157,0.889185 -7.84431,1.765549 -12.00876,6.649278 -4.93451,5.786806 -8.99287,7.058214 -15.71732,4.923954 -6.86389,-2.178513 -4.58234,-14.463493 4.26657,-22.973304 9.40441,-9.044031 15.63696,-10.48544 45.3383,-10.48544 23.97193,0 25.65577,0.167853 31.33333,3.123471 11.522,5.998105 18.386,15.623589 19.61197,27.502141 0.8291,8.03314 -0.55432,13.02228 -5.91635,21.3367 -6.69595,10.38281 -11.74491,12.46968 -37.26361,15.40205 -12.3376,1.41772 -24.83201,3.25371 -27.76534,4.07997 -6.93563,1.95364 -12.66667,5.35146 -12.66667,7.50982 0,1.357 8.43274,1.71252 40.61976,1.71252 38.79495,0 40.68176,0.11586 42,2.57901 0.75913,1.41846 1.38024,4.7579 1.38024,7.42099 0,2.66309 -0.62111,6.00253 -1.38024,7.42099 -1.32867,2.48265 -3.33866,2.57901 -53.79335,2.57901 -50.15647,0 -52.51377,-0.11122 -54.75103,-2.58337 z m -280.91249,-19.0833 c -0.87868,-1.65 -4.49979,-6.83948 -8.04691,-11.53217 -6.68337,-8.84182 -7.88697,-12.1345 -4.43564,-12.1345 2.48616,0 17.98633,20.88612 17.98633,24.23616 0,3.40477 -3.58489,3.03383 -5.50378,-0.56949 z m 638.83711,0.22364 c 0,-1.39634 9.64503,-15.26541 15.57392,-22.39452 2.36565,-2.84455 3.22943,-3.17846 4.6367,-1.79242 1.17402,1.15632 1.31086,2.28458 0.42608,3.51312 -0.71685,0.99536 -4.5635,6.37885 -8.54812,11.9633 -4.46924,6.26366 -8.1726,10.15355 -9.66666,10.15355 -1.33206,0 -2.42192,-0.64937 -2.42192,-1.44303 z M 303.9922,113.66667 c -0.75005,-1.28333 -4.29828,-7.2845 -7.88495,-13.33594 l -6.52124,-11.002602 3.38681,-2.664061 c 5.78037,-4.546843 7.57803,-3.497687 14.88591,8.687758 3.74437,6.243495 6.80794,12.199955 6.80794,13.236565 0,1.90773 -6.06596,7.41162 -8.16852,7.41162 -0.62822,0 -1.7559,-1.05 -2.50595,-2.33334 z m 545.67447,-1.23256 c -4.08665,-2.8507 -3.83143,-4.44707 2.33333,-14.594469 2.93333,-4.828365 5.33333,-9.22453 5.33333,-9.769257 0,-0.544726 1.16051,-2.040655 2.57891,-3.324286 2.45719,-2.223728 2.76985,-2.221079 6.62485,0.05613 2.22527,1.3145 4.30231,3.05808 4.61565,3.874622 0.95023,2.476252 -13.8318,25.99811 -16.28904,25.91989 -1.20837,-0.0385 -3.54703,-1.01165 -5.19703,-2.16263 z M 357.7431,85.000006 c -1.66471,-2.219472 -11.07643,-23.557638 -11.07643,-25.112389 0,-0.671521 1.09188,-1.220946 2.42641,-1.220946 1.76911,0 3.93873,3.341061 8.00901,12.333334 6.00902,13.275438 6.57801,15.666668 3.72784,15.666668 -1.01021,0 -2.39928,-0.75 -3.08683,-1.666667 z m 441.71153,0.529598 c -1.13276,-1.832845 10.96815,-27.487641 13.18857,-27.960699 3.2473,-0.691835 2.42783,4.036699 -2.47113,14.259119 -2.47203,5.158257 -4.81586,10.607149 -5.20851,12.108649 -0.71426,2.731337 -4.18509,3.734943 -5.50893,1.592931 z M 411.08235,65.000005 c -0.6843,-0.916667 -2.91638,-6.931204 -4.96018,-13.365639 -3.83134,-12.062046 -3.87644,-17.416794 -0.12043,-14.299586 2.34248,1.944085 10.38462,26.294733 9.2764,28.087859 -1.06402,1.721619 -2.71959,1.554856 -4.19579,-0.422634 z m 334.96338,0.407326 c -1.24703,-2.017737 8.72281,-29.407328 10.70429,-29.407328 3.44839,0 3.28086,2.713814 -0.92239,14.942663 -5.19344,15.109685 -7.38259,18.346822 -9.7819,14.464665 z M 466.10022,50.444214 c -0.31232,-0.977649 -1.9311,-7.629078 -3.59729,-14.780954 -2.35264,-10.098338 -2.67275,-13.360102 -1.43285,-14.600001 1.03541,-1.035412 2.05281,-1.140366 2.89458,-0.2986 1.42819,1.428188 5.61978,20.294304 5.87472,26.441773 0.16416,3.958517 -2.71302,6.449905 -3.73916,3.237782 z m 226.20228,0.409409 c -2.38049,-1.471221 3.56211,-30.853622 6.24015,-30.853622 3.33752,0 3.47015,3.520554 0.61174,16.237247 -3.20808,14.272295 -4.15169,16.285192 -6.85189,14.616375 z M 522.19436,41.647816 c -0.79941,-1.293471 -3.52769,-21.875584 -3.52769,-26.612836 0,-5.0867147 5.04331,-3.991536 5.97893,1.298354 1.52823,8.640388 1.40559,25.370489 -0.19008,25.931291 -0.84946,0.298544 -1.86699,0.02098 -2.26116,-0.616809 z M 635.2363,40.894609 c -0.374,-0.974634 0.0948,-8.024635 1.04185,-15.666668 1.32555,-10.696606 2.18217,-13.894607 3.72185,-13.894607 1.56773,0 1.94228,1.585004 1.73293,7.333334 -0.58005,15.92681 -1.88551,24.000002 -3.8809,24.000002 -1.06465,0 -2.24172,-0.797428 -2.61573,-1.772061 z m -59.12122,-2.755938 c -1.01097,-1.218152 -1.41293,-6.631739 -1.16326,-15.666668 l 0.38151,-13.8053357 h 6 6 l 0.37843,13.5263347 c 0.30758,10.993948 -0.0223,13.927046 -1.7619,15.666668 -2.63523,2.635226 -7.75866,2.780571 -9.83478,0.279001 z"
       id="path1" />
  </g>
</svg>
