<?xml version="1.0" encoding="UTF-8" standalone="no"?>
<!-- Created with Inkscape (http://www.inkscape.org/) -->

<svg
   version="1.1"
   id="svg1"
   width="1000"
   height="1000"
   viewBox="0 0 1000 999.99999"
   sodipodi:docname="clock-face-2-symbolic.svg"
   inkscape:version="1.4 (e7c3feb100, 2024-10-09)"
   xmlns:inkscape="http://www.inkscape.org/namespaces/inkscape"
   xmlns:sodipodi="http://sodipodi.sourceforge.net/DTD/sodipodi-0.dtd"
   xmlns="http://www.w3.org/2000/svg"
   xmlns:svg="http://www.w3.org/2000/svg">
  <defs
     id="defs1" />
  <sodipodi:namedview
     id="namedview1"
     pagecolor="#505050"
     bordercolor="#ffffff"
     borderopacity="1"
     inkscape:showpageshadow="0"
     inkscape:pageopacity="0"
     inkscape:pagecheckerboard="1"
     inkscape:deskcolor="#505050"
     inkscape:zoom="4.9212599"
     inkscape:cx="81.381599"
     inkscape:cy="81.889599"
     inkscape:window-width="1920"
     inkscape:window-height="1011"
     inkscape:window-x="0"
     inkscape:window-y="0"
     inkscape:window-maximized="1"
     inkscape:current-layer="g1" />
  <g
     inkscape:groupmode="layer"
     inkscape:label="Image"
     id="g1"
     transform="translate(418.64,418.23044)">
    <path
       style="fill:#000000;stroke-width:6.66015"
       d="m 43.028605,579.65247 c -1.875913,-1.15989 -3.683089,-3.21038 -4.015946,-4.55665 -0.574471,-2.32346 -0.04431,-41.82616 0.597355,-44.48456 0.743075,-3.08 8.081078,-4.86013 20.243664,-4.91091 13.651276,-0.0604 16.187089,0.7994 18.421283,6.2219 1.915033,4.64779 2.002341,36.72378 0.115211,42.33548 -1.985436,5.90406 -6.327758,7.50881 -20.310641,7.50599 -9.706422,-0.002 -12.206846,-0.35278 -15.050966,-2.11125 z m 27.220278,-24.63385 c 0,-20.97211 0.302182,-20.46554 -12.207666,-20.46554 -7.698247,0 -9.027877,0.27633 -9.977328,2.07564 -0.602513,1.14158 -1.09543,8.65823 -1.09543,16.70359 0,8.04535 0.492924,15.56194 1.09543,16.70358 0.970516,1.83896 2.297923,2.07564 11.640212,2.07564 h 10.544782 z m 25.492215,25.81345 c -4.804901,-1.36304 -6.954524,-5.86911 -7.10951,-14.90319 -0.09742,-5.67743 0.305687,-8.62973 1.318412,-9.65675 1.167256,-1.1837 1.203896,-1.94674 0.1834,-3.81916 -1.671369,-3.06665 -1.643658,-17.75998 0.03902,-20.85091 2.834464,-5.20573 5.692784,-6.01807 21.45347,-6.09681 l 14.70751,-0.0738 -8e-5,4.56067 -7e-5,4.56066 h -12.61187 c -6.93653,0 -13.3651,0.29309 -14.285713,0.65124 -2.352606,0.91549 -2.319537,10.34648 0.04299,12.33507 0.944403,0.79476 4.992023,1.63272 8.994713,1.86209 l 7.27761,0.41717 v 4.12788 4.12794 l -8.73016,0.31187 -8.730159,0.31187 -0.323413,4.51962 c -0.605489,8.46145 0.132738,8.89411 15.175462,8.89411 H 126.333 v 4.82894 4.82895 l -14.02117,-0.10731 c -7.71164,-0.0604 -15.168715,-0.4326 -16.571274,-0.83038 z M -18.476177,548.82422 c -1.947295,-0.38967 -2.351025,-0.99785 -1.874934,-2.82339 0.33373,-1.27953 2.096865,-9.56982 3.918142,-18.42289 1.82127,-8.85306 3.382506,-16.18025 3.469411,-16.28259 0.08691,-0.10262 1.821442,0.15694 3.8545306,0.57612 2.5728439,0.53051 3.7709722,1.40274 3.9414021,2.86886 0.1346561,1.15854 -1.3201455,9.34991 -3.2329299,18.20297 -3.7250468,17.24081 -3.6752708,17.16234 -10.0756218,15.88079 z m 191.402687,-4.7828 c -1.34029,-6.18004 -6.38471,-30.92187 -6.37611,-31.27338 0.003,-0.11737 2.11156,-0.33601 4.68596,-0.48625 l 4.68073,-0.27297 1.24735,6.17481 c 0.68606,3.39616 2.34939,11.24527 3.69631,17.44242 1.34692,6.19714 2.1293,11.59208 1.73864,11.98886 -0.39067,0.39637 -2.44715,1.04479 -4.56998,1.44009 l -3.85967,0.71885 z m -236.540061,-7.63718 c -1.746032,-0.60495 -3.433102,-1.49771 -3.749041,-1.98402 -0.538095,-0.82816 9.829887,-33.75532 11.003485,-34.94546 1.004253,-1.01837 8.238393,2.01696 7.772176,3.26115 -0.254299,0.6786 -2.723221,8.47728 -5.486481,17.33034 -2.763268,8.85306 -5.325939,16.39829 -5.694828,16.76717 -0.368916,0.36888 -2.099279,0.17572 -3.845311,-0.42924 z m 284.619321,-1.04633 c -0.27447,-0.73776 -2.79134,-8.58479 -5.59246,-17.43786 l -5.09306,-16.09648 2.71561,-0.67209 c 1.49365,-0.36955 3.49729,-1.00476 4.45258,-1.41146 1.45476,-0.61904 2.68406,2.13674 7.56872,16.96837 l 5.83187,17.70767 -3.22929,1.14164 c -4.23142,1.49584 -6.04286,1.44144 -6.65397,-0.19986 z m -387.79392,-11.71884 c -2.03704,-1.26116 -4.75803,-2.94291 -6.04664,-3.7372 -2.33706,-1.44064 -2.32412,-1.47726 5.15484,-14.59019 4.12378,-7.23034 8.73707,-15.31902 10.25175,-17.97494 1.51468,-2.65592 2.77816,-5.07039 2.80773,-5.36549 0.0298,-0.2951 1.72093,-3.19247 3.75857,-6.43859 2.03765,-3.24613 4.88224,-8.19579 6.32133,-10.99926 1.43908,-2.80347 2.95351,-5.09722 3.36541,-5.09722 0.6543,0 11.33837,6.08353 12.32261,7.01652 0.466,0.44198 -32.98473,59.47394 -33.7028,59.4771 -0.29101,10e-4 -2.19577,-1.02957 -4.2328,-2.29073 z m 474.60318,-25.79696 c -8.73016,-15.42841 -16.01376,-28.62169 -16.18585,-29.3184 -0.27183,-1.10213 12.32388,-9.66808 13.02454,-8.85735 0.1455,0.16834 7.68426,13.31078 16.75251,29.20505 l 16.48776,28.89875 -6.57387,4.06114 c -3.61561,2.23365 -6.81197,4.06147 -7.10298,4.06188 -0.291,3.3e-4 -7.67195,-12.62266 -16.40211,-28.05107 z m -418.71018,20.05346 -2.83715,-1.57624 7.47866,-16.9058 c 4.11326,-9.29813 7.607628,-17.06207 7.765267,-17.25315 0.225463,-0.27364 6.551535,2.63956 7.602924,3.50079 0.74623,0.61099 -14.687211,33.37243 -15.815071,33.57128 -0.74661,0.13146 -2.6342,-0.47015 -4.19463,-1.33688 z m 371.24979,-14.49615 c -3.8703,-8.87164 -7.03214,-16.47723 -7.02619,-16.9013 0.006,-0.42388 1.86654,-1.56116 4.13479,-2.52682 l 4.12401,-1.75579 7.44504,16.77918 7.44504,16.77917 -3.37877,1.83292 c -1.85833,1.00811 -3.90258,1.85317 -4.54286,1.87792 -0.64021,0.0268 -4.33069,-7.21364 -8.20106,-16.08528 z m -455.86686,-35.54458 c -2.12661,-2.02735 -3.03941,-3.56343 -2.27553,-3.82929 1.50605,-0.52447 8.77737,-10.5509 8.77737,-12.10354 0,-0.58887 0.38453,-1.07062 0.8545,-1.07062 0.80588,0 7.61111,-9.14307 7.61111,-10.22583 0,-0.27766 0.96931,-1.48811 2.15402,-2.68952 2.08145,-2.11071 2.25967,-2.12104 5.291,-0.30516 1.72535,1.03353 3.13699,2.29415 3.13699,2.80133 0,0.86766 -21.10198,30.80805 -21.7135,30.80805 -0.15668,0 -1.88287,-1.52346 -3.83596,-3.38542 z m 538.35496,-10.97746 c -5.58796,-7.8903 -10.15999,-14.79763 -10.15999,-15.34967 0,-0.89906 5.63486,-5.6997 6.69015,-5.6997 0.23479,0 4.15674,5.19111 8.71574,11.53581 4.55899,6.3447 9.35,12.98449 10.64669,14.75511 l 2.35754,3.21929 -4.04504,2.9425 -4.04504,2.94258 z M 63.899676,443.65123 c 0,-2.14794 2.948446,-28.2129 3.767923,-33.30931 l 0.560781,-3.48757 h 14.033294 14.0333 L 98.1925,423.2191 c 1.043638,9.00062 2.14755,17.69271 2.45314,19.31578 l 0.55562,2.95102 H 82.55047 c -16.889597,0 -18.650794,-0.17304 -18.650794,-1.83467 z m -297.307376,-6.53725 -3.28125,-3.32747 5.58532,-5.76643 c 3.07192,-3.17148 8.65645,-9.23127 12.41006,-13.46605 3.75361,-4.23485 7.17944,-7.69968 7.61295,-7.69968 0.43353,0 2.07544,1.12279 3.64873,2.49515 l 2.86052,2.49516 -10.87141,12.25995 c -5.97928,6.74295 -11.72918,13.17725 -12.77755,14.29837 -1.86565,1.99516 -1.9758,1.96779 -5.18737,-1.289 z m 612.78377,-10.58819 -11.99682,-13.41474 2.98743,-3.16216 c 1.64312,-1.73915 3.49921,-3.0262 4.1246,-2.86007 1.41277,0.37558 23.79994,25.23116 23.79994,26.42445 0,0.87256 -3.83168,4.69172 -5.84008,5.82095 -0.59326,0.33334 -6.47679,-5.43034 -13.07507,-12.80843 z m -479.49756,-10.79276 c -5.5291,-3.27422 -13.25907,-7.83516 -17.1777,-10.13535 l -7.1248,-4.18213 7.19506,-9.88948 c 3.95728,-5.43927 11.4508,-15.74531 16.65228,-22.90234 l 9.457219,-13.01273 11.901085,6.93323 c 6.545602,3.81325 11.899438,7.49599 11.897414,8.18378 -0.006,2.03279 -20.899035,50.53369 -21.864193,50.75535 -0.485913,0.11134 -5.407262,-2.47604 -10.936365,-5.75033 z m 349.17177,3.73023 c -13.34451,-30.76111 -20.79405,-48.7042 -20.46091,-49.2828 0.70674,-1.22776 22.88644,-13.84914 23.77209,-13.52755 0.45833,0.16633 8.22308,10.29008 17.25575,22.49725 l 16.42302,22.19497 -17.33856,10.26626 c -9.53618,5.64651 -17.62322,10.26634 -17.97123,10.26634 -0.34789,0 -1.1041,-1.08652 -1.68016,-2.41447 z m -517.24127,-17.23873 c -1.26548,-1.36606 -2.30086,-2.78509 -2.30086,-3.15344 0,-0.3682 6.25745,-6.34308 13.90544,-13.27711 l 13.90545,-12.60737 2.54605,3.00166 c 1.40033,1.6509 2.40478,3.38114 2.23212,3.84505 -0.45542,1.2236 -26.33863,24.67483 -27.2337,24.67483 -0.41449,0 -1.78903,-1.11763 -3.0545,-2.48362 z M 412.843,392.72164 c -7.30899,-6.59258 -13.06442,-12.50804 -12.78988,-13.14546 0.27447,-0.63715 1.89061,-2.27826 3.59114,-3.64632 l 3.09186,-2.48745 11.38598,10.42945 c 6.2623,5.73618 12.251,11.24708 13.30827,12.24647 1.85033,1.74902 1.81713,1.94358 -0.88776,5.20339 -1.54544,1.86249 -3.17004,3.38643 -3.61019,3.38643 -0.44048,0 -6.78042,-5.39393 -14.08942,-11.98651 z M 48.32922,388.90315 c -5.976535,-3.01796 -6.651766,-6.09225 -6.651766,-30.28546 0,-23.68704 0.599603,-26.57609 6.102566,-29.4025 2.206277,-1.13319 10.985304,-1.62527 37.019127,-2.07497 l 34.126983,-0.58953 v 6.33376 6.3337 l -32.539681,0.2837 -32.539683,0.2837 v 4.29239 4.2924 l 28.571429,0.0469 c 25.995465,0.0469 28.838675,0.22803 31.535565,2.03727 4.94641,3.31809 6.03057,6.81036 6.03057,19.42523 0,20.543 -0.69083,20.90262 -39.968503,20.80739 -23.714067,-0.0604 -28.835145,-0.34608 -31.686607,-1.78611 z m 58.35201,-11.63568 c 1.09704,-1.11246 1.66289,-3.63867 1.66289,-7.42389 0,-9.84615 2.20027,-9.13247 -28.155542,-9.13247 H 53.317666 v 7.43503 c 0,11.23272 -1.08213,10.80764 27.513227,10.80764 20.577657,0 24.435617,-0.25151 25.850337,-1.68631 z m 369.91687,-9.82582 c -4.95331,-1.90878 -33.05741,-19.07493 -34.39167,-21.00665 -2.19054,-3.17147 -1.98552,-8.12241 0.5205,-12.56813 1.15926,-2.05652 3.53479,-6.4911 5.27897,-9.85466 4.38803,-8.46206 7.94597,-11.59054 13.18148,-11.59054 5.56548,0 35.41118,17.02866 38.18168,21.78484 2.66171,4.56932 1.4713,9.21664 -5.31488,20.74856 -6.96548,11.83661 -11.2289,14.88629 -17.45615,12.48658 z m 7.85205,-14.38073 c -0.3135,-0.51442 -0.14088,-0.9346 0.38293,-0.9346 1.55972,0 6.64802,-10.37519 5.96872,-12.17042 -0.64286,-1.69965 -27.58691,-17.87635 -29.77467,-17.87635 -1.48896,0 -4.38333,4.06544 -8.22295,11.54977 -2.21607,4.31969 -2.6168,5.99064 -1.70423,7.10565 1.22824,1.50073 25.83664,16.07931 28.67275,16.98635 1.77652,0.56807 5.56415,-3.20562 4.67745,-4.6604 z m -818.38739,-5.14598 c -2.35371,-4.08683 -4.27948,-7.86621 -4.27948,-8.39861 0,-0.53252 3.80952,-3.09709 8.46561,-5.69929 4.65608,-2.6022 8.46561,-5.10044 8.46561,-5.55168 0,-0.45137 0.55793,-0.82031 1.23981,-0.82031 1.39824,0 24.76747,-13.4462 27.54186,-15.84705 1.61536,-1.39785 2.01717,-1.1902 3.9643,2.04854 1.19171,1.98222 2.16853,3.93076 2.17071,4.33016 0.002,0.39905 -2.61509,2.24559 -5.81615,4.10285 -3.20106,1.8572 -5.82011,3.7136 -5.82011,4.12533 0,0.4118 2.19873,4.55745 4.88608,9.21289 7.28862,12.62641 8.04829,14.81627 6.1123,17.6192 -1.5388,2.22789 -2.31272,2.30864 -22.12282,2.30864 h -20.52824 z m 34.6935,-3.48837 c -0.87219,-1.3721 -2.90029,-4.78844 -4.50692,-7.59191 -1.60662,-2.80347 -3.47113,-5.09246 -4.14333,-5.08662 -2.27987,0.0201 -23.21863,13.08644 -22.08758,13.78362 0.61806,0.38095 8.14369,0.84942 16.72366,1.0411 l 15.59994,0.34876 z m -47.12771,-20.74468 c -1.25205,-0.88926 -4.80388,-6.08038 -7.89297,-11.53581 -6.75428,-11.92816 -7.51893,-17.65488 -2.87708,-21.54762 6.31512,-5.29587 7.15593,-5.89131 9.28785,-6.57749 1.22624,-0.39503 2.22952,-1.24841 2.22952,-1.89724 0,-0.64855 0.27461,-0.90113 0.61025,-0.56069 0.33565,0.34004 5.21659,-2.09878 10.84656,-5.42036 10.83061,-6.3899 16.94919,-7.75494 20.6812,-4.61405 3.50503,2.94988 13.36487,22.09336 13.35939,25.93813 -0.008,5.63552 -3.25484,8.57259 -20.60354,18.63805 -16.68757,9.6819 -20.91801,10.93206 -25.64118,7.57722 z m 11.45117,-10.05399 c 1.38802,-1.10717 2.99986,-2.069 3.58187,-2.13741 0.58201,-0.0684 1.80624,-0.73192 2.72052,-1.47451 0.91427,-0.74258 2.34284,-1.50891 3.1746,-1.70294 0.83176,-0.19383 2.22657,-0.92172 3.09959,-1.61709 0.87301,-0.69537 3.90098,-2.4682 6.72881,-3.93962 2.82783,-1.47141 5.36824,-3.25108 5.64534,-3.95477 0.62361,-1.58369 -6.53134,-15.58763 -9.229,-18.06333 -1.87597,-1.72165 -2.70456,-1.38685 -16.58107,6.69902 -16.53854,9.63703 -16.35319,9.31342 -10.74744,18.76259 6.04691,10.19276 7.20872,10.93628 11.60678,7.42806 z m 837.47578,9.83293 c -3.33677,-0.8908 -12.7826,-6.58051 -14.94226,-9.00048 -3.1205,-3.49669 -2.38803,-9.51805 2.0838,-17.13067 2.11613,-3.6024 3.57791,-6.99225 3.24834,-7.53302 -0.32936,-0.54058 -0.0952,-0.98316 0.52117,-0.98316 2.33551,0 0.96303,-2.24848 -3.27097,-5.35879 -2.41534,-1.7743 -4.99061,-3.226 -5.72282,-3.226 -0.73214,0 -4.30264,5.19111 -7.93439,11.53581 -3.63174,6.34469 -6.73485,11.7006 -6.89583,11.90207 -0.4623,0.5788 -3.97546,-0.82072 -6.01303,-2.39509 -1.72454,-1.33245 -1.45542,-2.11601 3.76766,-10.97062 4.32923,-7.33932 11.03227,-19.56239 13.06958,-23.83238 0.30092,-0.63112 17.77936,9.68364 20.18888,11.91428 4.51429,4.17911 4.24762,8.398 -1.20343,19.03838 l -4.91158,9.58733 4.41482,3.24317 c 2.42817,1.78369 5.26124,3.24311 6.2957,3.24311 2.27473,0 5.73221,-4.24927 7.50674,-9.22577 0.71614,-2.0083 1.57348,-3.65142 1.90523,-3.65142 0.33201,0 1.77374,-2.17302 3.2045,-4.82894 1.43068,-2.65592 2.99199,-4.82895 3.46957,-4.82895 0.47752,0 2.30245,0.75205 4.05529,1.67129 l 3.18704,1.67122 -2.55463,4.4991 c -9.45251,16.64731 -11.39854,19.77177 -13.61376,21.85734 -2.71838,2.55934 -6.61541,3.66731 -9.85595,2.80219 z m -746.07847,-50.37071 c -5.63829,-9.76533 -9.8462,-18.13262 -9.35091,-18.59391 0.99433,-0.92609 46.58614,-21.12569 48.92435,-21.67606 1.4739,-0.34674 15.3309,22.1346 14.71705,23.87691 -0.16885,0.47887 -10.14671,8.35864 -22.17302,17.50975 l -21.86602,16.6384 z m 616.95698,1.73755 c -11.63439,-8.72369 -21.55761,-16.51096 -22.05152,-17.30506 -0.99385,-1.59777 11.46613,-24.51024 13.3289,-24.51024 1.30152,0 48.59133,20.36312 49.75582,21.42495 0.70384,0.64185 -17.0539,33.61689 -19.16171,35.58214 -0.39484,0.36821 -10.23703,-6.4681 -21.87149,-15.19179 z m 135.29901,-45.76256 -17.07137,-5.8054 1.06257,-4.24504 c 0.58466,-2.33473 1.5998,-4.24115 2.25655,-4.23646 0.65674,0.005 8.3369,2.34667 17.06706,5.20446 10.51316,3.44143 15.98049,5.75134 16.19127,6.84074 0.17527,0.90462 -0.30093,3.08529 -1.0582,4.84598 l -1.37646,3.20112 z m -874.48637,1.19261 c -0.68515,-2.10528 -1.07922,-3.95456 -0.87572,-4.10956 0.20351,-0.15493 7.51288,-2.59234 16.24304,-5.4164 8.73016,-2.82399 16.46036,-5.61465 17.17823,-6.2015 0.94053,-0.76881 1.56629,-0.35949 2.23965,1.46417 2.68828,7.28172 3.72127,6.38809 -14.43082,12.48383 -9.18355,3.08395 -17.23991,5.60721 -17.90301,5.60721 -0.6631,0 -1.76621,-1.72253 -2.45137,-3.82775 z M -378.24037,182.364 c -0.7708,-3.07947 -0.72445,-4.336 0.17141,-4.6467 0.67534,-0.23422 8.84695,-2.06848 18.15912,-4.07613 l 16.93122,-3.65029 0.94853,4.16851 c 0.52169,2.29268 0.75979,4.345 0.5291,4.56071 -0.23069,0.2157 -8.35371,2.07353 -18.05116,4.12848 l -17.63173,3.73627 z m 905.10302,1.79311 c -5.82011,-1.35414 -13.37381,-3.03357 -16.78598,-3.73207 l -6.20397,-1.27 0.69689,-4.41919 c 0.3836,-2.43056 0.83869,-4.56308 1.01217,-4.73894 0.41534,-0.42126 34.66693,7.0174 35.3088,7.66829 0.82056,0.83215 -1.29088,8.48505 -2.40821,8.72816 -0.57076,0.12421 -5.7996,-0.88212 -11.6197,-2.23625 z m -912.88328,-50.98014 c -0.23969,-2.54839 0.0529,-4.64505 0.67459,-4.83756 2.68461,-0.83108 34.77556,-3.62067 35.61308,-3.09576 0.51383,0.32206 0.93423,2.23794 0.93423,4.25758 0,4.29166 0.35238,4.16236 -15.87302,5.82362 -6.11111,0.62568 -13.31944,1.41038 -16.01851,1.74377 l -4.90739,0.60617 z m 912.88599,2.31304 -15.87031,-1.73927 0.36045,-4.2924 c 0.19842,-2.36081 0.51058,-4.4497 0.69471,-4.64197 0.38955,-0.40737 35.79623,3.1229 36.34603,3.62396 0.20305,0.18524 0.0397,2.30096 -0.3578,4.70155 -0.59921,3.5962 -1.13003,4.34029 -3.01515,4.22605 -1.25833,-0.0762 -9.42956,-0.92132 -18.1582,-1.87792 z M -209.1162,109.06947 v -5.90204 l 9.25926,-0.009 c 14.37027,-0.0148 53.54936,-1.19319 55.02646,-1.65551 0.73141,-0.22891 1.32275,-2.108116 1.32275,-4.203536 v -3.78952 L -170.75641,93.486 c -24.70698,-0.02146 -27.67189,-0.218376 -31.78586,-2.111818 -6.07415,-2.795637 -7.63213,-6.740844 -7.63213,-19.326587 0,-11.611215 1.59467,-16.245023 6.5304,-18.976227 3.07442,-1.701243 6.8166,-1.994293 29.41798,-2.303721 31.34787,-0.429172 34.19591,-0.08934 38.85556,4.635893 l 3.50294,3.552252 v 23.857041 23.857047 l -3.61739,3.45967 c -2.19426,2.09859 -5.21251,3.72693 -7.67195,4.13902 -2.23002,0.37364 -17.98315,0.68466 -35.00696,0.69116 l -30.95238,0.0121 z m 51.0582,-28.431559 14.55027,-0.0056 -0.0165,-7.243415 c -0.009,-3.983879 -0.47089,-7.967758 -1.02662,-8.853064 -0.86353,-1.375652 -4.74541,-1.555671 -26.70337,-1.238316 -14.13112,0.204224 -25.92176,0.597247 -26.20141,0.873322 -0.68774,0.678969 -0.92576,11.994392 -0.30311,14.408958 0.675,2.617555 3.30622,3.056882 15.09727,2.520735 5.5291,-0.25144 16.60052,-0.459622 24.60317,-0.46264 z m 454.76192,28.488799 v -5.95928 h 29.95648 c 34.63419,0 34.18075,0.10919 33.27784,-8.014097 -0.31349,-2.820693 -1.21713,-5.544311 -2.008,-6.052477 -0.79087,-0.508179 -10.60463,-0.931342 -21.80834,-0.940377 l -20.37037,-0.0161 V 82.77889 77.413397 l 18.78307,-0.07975 c 20.4504,-0.08685 23.53228,-0.379541 24.86733,-2.36183 0.88942,-1.320669 0.27249,-9.75955 -0.84749,-11.597701 -0.34127,-0.56009 -13.79596,-0.984105 -31.22513,-0.984105 h -30.62539 v -5.902042 -5.902043 l 31.48148,0.06036 c 34.1084,0.06573 37.12572,0.482089 40.90158,5.645639 2.88565,3.946219 3.76469,18.12251 1.4166,22.846176 -1.29755,2.610339 -1.32189,3.61604 -0.15277,6.323321 1.9535,4.524291 1.87969,18.112768 -0.11971,22.033638 -3.36693,6.60264 -5.08023,6.90633 -40.98737,7.26554 l -32.53968,0.32555 z M -293.77227,82.778555 V 62.389681 l 3.43915,0.09014 c 1.89153,0.04963 14.39153,1.377557 27.77778,2.951021 l 24.33862,2.860854 0.28281,14.166458 0.2828,14.166458 -3.4574,0.590741 c -5.05835,0.864334 -48.39687,5.952017 -50.70118,5.952017 -1.84243,0 -1.96257,-1.2481 -1.96257,-20.388876 z m 717.46031,17.439375 c -12.51323,-1.478724 -22.88274,-2.800734 -23.04332,-2.937796 -0.16071,-0.137088 -0.58994,-6.559248 -0.95337,-14.271521 l -0.66144,-14.022313 3.59894,-0.623605 c 5.20509,-0.901892 48.27738,-5.973034 50.73254,-5.973034 1.98538,0 2.07268,0.858874 2.07268,20.388873 v 20.388876 l -4.49735,-0.13045 c -2.47355,-0.0718 -14.73545,-1.34032 -27.24868,-2.81905 z M -418.64,83.315104 v -8.078387 l 33.59788,0.283365 33.59789,0.283365 v 7.51169 7.511691 l -33.59789,0.283365 -33.59788,0.283365 z m 932.27513,0 v -8.04824 H 547.49757 581.36 v 8.04824 8.04824 h -33.86243 -33.86244 z m -883.06878,-43.330871 -15.87302,-1.739271 -0.32539,-4.56067 c -0.38856,-5.445928 -1.28275,-5.310188 19.37301,-2.940806 7.56614,0.867895 14.58995,1.582814 15.60847,1.588716 1.21616,0.0067 1.84689,0.839538 1.8374,2.425189 -0.0258,4.35953 -1.25282,7.246447 -3.01902,7.104765 -0.95064,-0.07625 -8.87129,-0.921316 -17.60145,-1.877923 z m 880.75959,-2.397128 c -0.23347,-2.479958 0.0661,-4.56747 0.68247,-4.764678 0.60384,-0.193024 8.44279,-1.127961 17.42031,-2.0776 8.97751,-0.949632 16.67341,-1.946393 17.10198,-2.215016 0.92236,-0.578065 2.50747,7.973988 1.64087,8.852788 -0.32672,0.331454 -8.58842,1.494746 -18.35906,2.585055 -9.77057,1.090308 -17.83373,1.993804 -17.91812,2.007767 -0.084,0.01409 -0.33995,-1.960779 -0.56812,-4.388316 z M -363.41247,-7.7415734 c -8.32856,-1.8568027 -15.11351,-3.8588966 -15.07768,-4.4491006 0.0357,-0.590204 0.36528,-2.695355 0.73207,-4.67812 0.62024,-3.352601 0.89795,-3.563136 3.96657,-3.006842 8.28061,1.501144 31.40947,6.859146 31.9426,7.399779 0.32671,0.33132 0.27228,2.341897 -0.12104,4.4679271 -0.88867,4.8037193 -1.0798,4.8060935 -21.4425,0.2663296 z m 867.98464,0.6480845 c -0.35053,-1.6230617 -0.78631,-3.4628761 -0.96799,-4.0884791 -0.18386,-0.63353 3.25423,-1.917714 7.76038,-2.89856 4.44987,-0.968606 12.57586,-2.749413 18.05774,-3.957346 5.48195,-1.207934 10.13049,-2.030578 10.33016,-1.828098 0.19974,0.202481 0.47619,2.213179 0.61508,4.468222 l 0.25198,4.100082 -15.87301,3.5379659 c -8.73016,1.9458766 -16.69729,3.5557995 -17.7047,3.5775968 -1.1537,0.024815 -2.06772,-1.0527299 -2.46938,-2.9113836 z M -349.85693,-53.70949 c -9.02116,-2.957138 -16.49971,-5.467297 -16.619,-5.578141 -0.31296,-0.290877 2.36855,-8.024538 3.00682,-8.671784 0.40734,-0.413076 24.42125,7.241256 33.4147,10.650846 0.99805,0.378401 0.97893,1.380387 -0.0858,4.499268 -0.75342,2.206861 -1.80742,4.116862 -2.3422,4.244447 -0.53479,0.127564 -8.35331,-2.187505 -17.37447,-5.144636 z m 842.32857,1.815824 c -0.69835,-2.145715 -1.04749,-4.126648 -0.77586,-4.402072 0.81415,-0.825629 27.95245,-9.925217 31.76204,-10.649968 3.33657,-0.634737 3.59431,-0.45828 4.70853,3.223294 1.38545,4.577738 3.01759,3.637187 -17.87692,10.302182 -7.76303,2.476289 -14.66217,4.710588 -15.33135,4.965107 -0.66924,0.254525 -1.78809,-1.292822 -2.48644,-3.438543 z M 363.63361,-67.735345 c -2.35569,-3.026232 -13.01435,-22.625654 -12.73512,-23.417521 0.16667,-0.472163 10.15185,-8.352825 22.18955,-17.512654 l 21.88684,-16.65424 10.23161,17.76996 c 5.62745,9.773475 9.826,18.14974 9.33016,18.613929 -0.49603,0.464183 -11.6158,5.542796 -24.71104,11.285792 -13.09524,5.742996 -24.1127,10.622369 -24.48327,10.843051 -0.37037,0.220656 -1.13948,-0.197047 -1.70873,-0.928317 z M -228.8737,-78.028192 c -12.90366,-5.693868 -23.75988,-10.657378 -24.12492,-11.030019 -0.59755,-0.610056 2.32691,-6.104724 15.46336,-29.053499 l 4.11914,-7.19597 21.77073,16.21748 c 11.9739,8.91962 21.97687,16.762258 22.22883,17.428095 0.79384,2.097828 -12.27519,24.219414 -14.23585,24.096625 -0.96805,-0.06036 -12.31762,-4.768844 -25.22129,-10.462712 z m -93.1941,-20.727879 c -2.87242,-1.801099 -3.25216,-2.482169 -2.34372,-4.203499 0.59623,-1.12977 0.79521,-2.05414 0.4422,-2.05414 -0.35305,0 0.0522,-0.70404 0.90091,-1.56455 2.78838,-2.82764 10.24451,-17.58636 9.66215,-19.12534 -0.52269,-1.3812 -6.98069,-5.64892 -11.20842,-7.40694 -2.27452,-0.94583 -3.52668,0.59644 -10.39624,12.80518 -3.07188,5.45939 -6.01527,9.92616 -6.54088,9.92616 -0.71543,0 -21.65881,-11.81658 -24.04213,-13.56494 -0.2162,-0.15862 0.87529,-2.48323 2.42556,-5.16581 1.55027,-2.68258 2.54196,-4.87742 2.20375,-4.87742 -0.33823,0 0.31898,-1.01651 1.46035,-2.25891 1.14141,-1.24241 2.68747,-3.7776 3.43569,-5.63377 0.74822,-1.85617 1.98012,-4.0174 2.73757,-4.80274 0.75744,-0.78533 1.10659,-1.87184 0.77588,-2.41447 -0.33068,-0.54259 -0.17195,-0.98659 0.35272,-0.98659 0.52473,0 1.85321,-1.69321 2.95223,-3.76269 1.09902,-2.06948 2.24543,-3.6234 2.54759,-3.45314 0.30211,0.17022 1.85889,0.97519 3.45942,1.78875 1.60053,0.81355 2.91006,1.9749 2.91006,2.58076 0,0.6059 -2.85715,6.06842 -6.34921,12.13899 -3.49206,6.07059 -6.34921,11.44463 -6.34921,11.94232 0,0.81103 7.4717,5.59248 8.73906,5.59248 0.28293,0 2.12283,-2.71163 4.08872,-6.02585 9.01218,-15.19334 12.5556,-16.74281 24.15411,-10.56216 9.69303,5.16526 13.15897,9.1912 12.46029,14.47357 -0.39107,2.95665 -13.97517,29.306711 -14.87444,28.853004 -0.0969,-0.04896 -1.71872,-1.05611 -3.60401,-2.238255 z m 798.13679,-15.689899 c -3.49583,-0.72657 -6.70714,-4.49647 -12.35357,-14.50245 -4.74643,-8.41097 -5.29471,-10.01711 -4.77109,-13.97619 0.38756,-2.93058 1.47764,-5.21383 3.16091,-6.62101 6.25879,-5.23236 7.08545,-5.84879 7.08545,-5.2836 0,0.32951 1.383,-0.39952 3.07341,-1.62015 1.69034,-1.22059 3.34332,-2.21927 3.67321,-2.21927 0.33003,0 4.19921,-2.15796 8.59842,-4.79547 10.95965,-6.57075 15.47182,-7.87282 19.04801,-5.49662 4.59544,3.05343 15.34637,21.71259 15.33843,26.62117 -0.007,5.38304 -3.66184,8.74462 -19.33783,17.79455 -15.84068,9.14497 -19.84061,10.86281 -23.51535,10.09904 z m 12.30728,-13.86517 c 3.99821,-2.18992 7.26944,-4.39144 7.26944,-4.89228 0,-0.5008 0.41998,-0.64728 0.9338,-0.32535 0.51389,0.32187 2.06124,-0.30569 3.43915,-1.39459 1.37798,-1.08891 4.07719,-2.79757 5.99835,-3.79702 2.85179,-1.4836 3.36144,-2.25014 2.77619,-4.17585 -1.1705,-3.85142 -8.75324,-16.55307 -10.22361,-17.12523 -1.7625,-0.68585 -29.81865,15.65804 -30.19325,17.58884 -0.459,2.36726 9.12929,18.10314 11.03108,18.10314 0.93466,0 4.97064,-1.79175 8.96885,-3.98166 z m -805.42897,-21.8544 c -8.43915,-4.83486 -16.65344,-10.02354 -18.25397,-11.53039 -4.54905,-4.28281 -4.03049,-9.542 1.97861,-20.06676 10.76255,-18.85027 13.00485,-19.34303 33.50444,-7.36281 17.68379,10.33463 19.25315,11.48452 20.78185,15.2271 1.57782,3.86279 0.14458,8.43046 -5.95711,18.98561 -9.33923,16.15558 -11.56531,16.48527 -32.05382,4.74725 z m 23.93347,-8.23482 c 6.11442,-10.41517 6.13777,-10.55771 2.21533,-13.52256 -5.38274,-4.06865 -25.87196,-15.71938 -27.64444,-15.71938 -1.66881,0 -10.10577,14.30764 -10.13058,17.17973 -0.008,0.89088 1.05744,2.31421 2.36696,3.16294 4.44073,2.87815 27.72223,16.14268 28.33312,16.14268 0.334,0 2.52081,-3.25953 4.85961,-7.24341 z m 737.5664,-2.83294 c -3.18419,-5.50987 -3.22209,-5.65847 -1.44696,-5.67399 1.51032,-0.0134 19.96654,-11.96476 21.14782,-13.69452 0.42791,-0.62615 0.78472,-0.78711 0.79365,-0.35767 0.0132,0.68214 13.29921,-7.53652 21.35694,-13.21223 l 2.82223,-1.98793 2.66018,4.52695 c 2.03618,3.4651 2.36707,4.8154 1.41058,5.75664 -0.6873,0.67634 -10.26131,6.87734 -21.27559,13.78001 -11.01429,6.90268 -21.07745,13.24896 -22.36257,14.10287 -2.22017,1.47515 -2.47467,1.31363 -5.10628,-3.24011 z M 31.095443,-193.54434 v -31.65641 h 5.291006 5.291005 v 31.65641 31.65641 h -5.291005 -5.291006 z m 24.34258,18.51095 c 0.0033,-11.12307 0.320238,-13.67147 2.059775,-16.56454 3.611561,-6.00646 4.557407,-6.19252 34.444206,-6.77536 l 27.513226,-0.53654 0.31746,-6.80056 c 0.19094,-4.09001 -0.17705,-7.40478 -0.92322,-8.31651 -1.01632,-1.24184 -6.76637,-1.51596 -31.798921,-1.51596 h -30.55826 v -4.82895 -4.82894 h 32.327678 c 36.060213,0 37.453363,0.24272 40.242453,7.01195 1.93555,4.69763 1.93847,17.75673 0.005,22.44926 -2.96836,7.20429 -4.36646,7.5315 -33.373012,7.81075 -14.286051,0.13756 -26.807969,0.45452 -27.826488,0.70436 -1.547526,0.37961 -1.851852,1.70526 -1.851852,8.06646 v 7.61215 H 98.2912 130.56633 v 4.82894 4.82895 H 93.000225 55.434088 Z m -163.194783,-38.29429 -16.61198,-22.46608 17.51841,-10.3728 c 9.635125,-5.70504 17.874815,-9.96142 18.310416,-9.4586 0.898684,1.03735 20.87207,47.3329 21.405106,49.6141 0.214815,0.91928 -4.004676,4.08249 -11.093571,8.31651 -6.29213,3.75812 -11.772368,6.83295 -12.178314,6.83295 -0.405952,0 -8.213472,-10.10973 -17.350067,-22.46608 z m 347.84699,15.95027 c -5.82004,-3.49847 -10.73737,-6.83369 -10.92732,-7.4116 -0.33598,-1.02135 19.51038,-49.07852 20.96462,-50.76573 0.61838,-0.71744 33.18578,17.3343 35.05654,19.43145 0.93446,1.0475 -31.06038,44.66226 -32.94087,44.90442 -0.86409,0.11127 -6.33294,-2.66007 -12.15297,-6.15854 z m -497.61574,-21.96245 -13.91981,-12.67641 2.32859,-2.00632 c 1.28072,-1.10348 2.85852,-2.71054 3.50623,-3.57124 0.97278,-1.29269 3.45793,0.5122 14.28571,10.37534 7.20944,6.56715 13.2314,12.25593 13.38214,12.64174 0.15073,0.38578 -1.06178,2.32414 -2.69449,4.30739 l -2.96856,3.60592 z m 660.12632,9.55432 c -1.20629,-1.5551 -2.19306,-3.12451 -2.19293,-3.48757 1.4e-4,-0.36304 3.21442,-3.62505 7.14286,-7.24887 3.92844,-3.62383 9.99974,-9.2831 13.4918,-12.57617 l 6.34921,-5.98741 3.01309,3.32049 c 2.92024,3.21806 2.95285,3.37839 1.0582,5.19748 -5.66323,5.43744 -25.85205,23.60952 -26.22969,23.60952 -0.24141,0 -1.42626,-1.27236 -2.63254,-2.82747 z m -626.28753,-42.78216 c -5.97675,-6.74808 -11.08259,-12.88827 -11.3463,-13.64484 -0.5506,-1.5797 4.32211,-7.62089 5.72047,-7.0922 0.51078,0.19309 6.26638,6.37785 12.79026,13.74387 l 11.86161,13.39277 -3.51054,2.97199 c -1.93079,1.63459 -3.76662,2.95526 -4.07961,2.93482 -0.31296,-0.0201 -5.45914,-5.55833 -11.43589,-12.30641 z m 593.78746,9.78207 -3.02645,-2.66166 4.7619,-5.14773 c 2.61905,-2.83125 5.11905,-5.31799 5.55556,-5.52608 0.4365,-0.20812 0.79365,-0.77595 0.79365,-1.26189 0,-0.48591 3.30185,-4.42299 7.33756,-8.74898 l 7.3375,-7.86543 2.71541,2.58686 c 1.49339,1.42278 2.71535,2.96741 2.71535,3.43252 0,0.99521 -22.99531,27.06868 -24.28492,27.53569 -0.48347,0.17512 -2.24101,-0.87939 -3.90556,-2.3433 z m -303.373729,0.44466 -25.214987,-0.56592 14.523036,-18.24266 c 7.987672,-10.03347 16.917156,-21.25734 19.843307,-24.94194 2.92615,-3.68458 5.494133,-6.52293 5.706633,-6.30744 2.091072,2.12051 38.39933,49.66088 38.39933,50.27832 0,0.83331 -7.7328,0.80131 -53.257319,-0.22039 z M -182.9252,-276.9669 c -3.1098,-4.28495 -7.8665,-10.95186 -10.57044,-14.81535 l -4.91626,-7.02452 3.73519,-3.02233 c 2.05434,-1.66228 4.10623,-2.60585 4.55973,-2.09682 2.16113,2.42574 20.15422,28.22258 20.15422,28.89526 0,0.82037 -2.55876,3.04582 -5.50598,4.78875 -1.49788,0.88581 -2.75726,-0.25004 -7.45646,-6.72499 z m 518.10127,5.22583 -2.95086,-2.57394 3.13585,-4.6848 c 1.72473,-2.57665 3.37778,-4.92626 3.67348,-5.22136 1.73875,-1.73513 12.4164,-16.94601 12.99424,-18.51095 0.38162,-1.03286 1.12024,-1.87792 1.64207,-1.87792 1.91051,0 6.63822,4.59186 6.12473,5.94876 -0.70641,1.86688 -19.61323,28.20593 -20.76508,28.92783 -0.49669,0.31146 -2.23148,-0.59195 -3.85443,-2.00762 z m -493.90573,-50.06294 c -9.08825,-15.9577 -16.5241,-29.18444 -16.5241,-29.39277 0,-0.20831 2.95487,-2.16376 6.56639,-4.34541 6.15049,-3.71541 6.65352,-3.84581 7.94212,-2.05874 4.52317,6.2729 32.08061,56.59203 31.35002,57.24428 -0.48677,0.43454 -3.56818,2.31482 -6.84765,4.17837 l -5.96267,3.38827 z m 456.24158,25.43074 c -3.33869,-1.87431 -6.07679,-3.75196 -6.08466,-4.17256 -0.007,-0.42059 5.03393,-9.59559 11.20404,-20.38887 16.07262,-28.11561 16.07195,-28.1144 16.09404,-29.16206 0.0132,-0.52421 0.47024,-1.24856 1.02097,-1.60965 0.55026,-0.3611 1.79385,-2.22593 2.76303,-4.14409 0.96918,-1.91817 2.10708,-3.48153 2.52864,-3.47415 0.42129,0.007 3.48101,1.58162 6.79874,3.4983 l 6.03234,3.48487 -16.43148,28.96294 c -9.03737,15.92961 -16.75185,29.28922 -17.14345,29.68801 -0.39154,0.39879 -3.44359,-0.80844 -6.78221,-2.68274 z m -404.28962,-36.26432 c -3.88879,-8.92291 -6.83252,-16.61399 -6.54162,-17.09129 0.58585,-0.96126 7.89132,-3.6046 8.31683,-3.00928 0.28836,0.40342 10.544785,23.82202 12.989336,29.65866 1.472314,3.51532 1.463664,3.53517 -2.222943,5.09722 -2.035556,0.86248 -4.09928,1.56815 -4.586052,1.56815 -0.486773,0 -4.066771,-7.30056 -7.955551,-16.22346 z m 362.74087,14.95947 c -1.16402,-0.65928 -2.26203,-1.31542 -2.44001,-1.45804 -0.28373,-0.22763 12.62943,-30.09756 14.45278,-33.43043 0.52116,-0.95232 1.68366,-0.81598 4.57566,0.53655 l 3.87725,1.81331 -7.45179,16.9013 c -7.6789,17.4164 -8.38174,18.26095 -13.01389,15.63731 z M -62.474325,-349.4209 c -2.852355,-9.29077 -5.22793,-17.33244 -5.279061,-17.87037 -0.05093,-0.53796 1.861501,-1.57343 4.250291,-2.30111 l 4.343261,-1.32305 5.068201,16.25139 c 2.787506,8.93826 5.28621,16.84829 5.552665,17.57785 0.447751,1.22584 -1.144696,2.16066 -6.620919,3.88675 -1.937679,0.61073 -2.592943,-0.84245 -7.314438,-16.22146 z m 277.167655,15.60556 c -1.74603,-0.62441 -3.33247,-1.26952 -3.52546,-1.43357 -0.32143,-0.27324 10.35628,-34.87265 11.02718,-35.73193 0.66006,-0.8453 7.8422,2.24467 7.8422,3.37393 0,1.94442 -11.00152,35.10549 -11.61548,35.01158 -0.30489,-0.0463 -1.9824,-0.59557 -3.72844,-1.22001 z m -228.466716,-13.45037 c -1.270741,-4.20874 -7.128955,-33.74405 -6.766005,-34.11211 0.215344,-0.21838 2.303783,-0.70713 4.640965,-1.08612 l 4.249432,-0.68908 3.3828039,16.48111 c 1.8605357,9.06462 3.3827976,17.25999 3.3827976,18.21193 0,1.08004 -1.2433796,1.98299 -3.3068783,2.4015 -4.6768452,0.94854 -4.9500532,0.88946 -5.5831152,-1.20723 z m 182.653476,1.11448 c -1.692,-0.32851 -2.25942,-1.01542 -1.87365,-2.26834 0.30436,-0.98844 1.48718,-6.41885 2.62855,-12.06757 2.01931,-9.99373 4.13102,-19.57192 4.87122,-22.09464 0.27017,-0.92089 1.50103,-0.95287 4.72593,-0.12281 2.45101,0.63092 4.1615,1.64849 3.90598,2.32374 -0.25,0.66076 -2.02362,8.80445 -3.94132,18.09718 -3.78156,18.32454 -3.25624,17.5031 -10.31671,16.13241 z m -137.82962,-9.16272 c -0.02447,-1.32796 -0.878049,-9.55715 -1.89625,-18.28709 -1.018201,-8.72993 -1.632884,-16.09407 -1.365959,-16.36475 0.266931,-0.27069 2.301633,-0.49215 4.521587,-0.49215 4.804908,0 4.447705,-1.09815 6.622871,20.36069 1.729709,17.06424 1.707202,17.15216 -4.398122,17.18133 -2.852692,0.0134 -3.446826,-0.3953 -3.484127,-2.39804 z m 91.56952,1.13839 c -0.28711,-0.77367 0.32744,-9.37137 1.36555,-19.10601 l 1.88748,-17.69933 4.19851,0.3615 c 2.30918,0.19879 4.31325,0.4731 4.45348,0.60945 0.14022,0.13635 -0.5793,8.42132 -1.59896,18.41095 l -1.85393,18.16297 -3.9651,0.3336 c -2.55197,0.21469 -4.15111,-0.16774 -4.48703,-1.0731 z m -64.409924,-33.91022 -23.057023,-29.73617 22.838922,-0.2892 c 12.561408,-0.15906 33.069259,-0.15906 45.572995,0 l 22.73407,0.2892 -22.0866,29.30076 c -12.147635,16.11541 -22.279824,29.49669 -22.515975,29.73617 -0.236177,0.2395 -10.805026,-12.94587 -23.486389,-29.30076 z"
       id="path1" />
  </g>
</svg>
